<svg width="165" height="147" viewBox="0 0 165 147" fill="none" xmlns="http://www.w3.org/2000/svg">
<g filter="url(#filter0_d_246_103)">
<rect x="0.0820312" y="34.146" width="131" height="89" rx="16" transform="rotate(-12.9061 0.0820312 34.146)" fill="white" shape-rendering="crispEdges"/>
<g clip-path="url(#clip0_246_103)">
<path d="M39.2141 71.7106C37.2932 72.1508 35.5651 72.157 34.0298 71.7293C32.4946 71.3016 31.2277 70.5566 30.2292 69.4944C29.2306 68.4321 28.5616 67.1604 28.2222 65.6792L32.041 64.8041C32.3699 66.239 33.13 67.2707 34.3214 67.899C35.5128 68.5273 36.8839 68.6637 38.4345 68.3084C39.3603 68.0963 40.1653 67.7291 40.8495 67.207C41.5569 66.6795 42.0651 66.0271 42.3742 65.2499C42.6833 64.4726 42.7291 63.6095 42.5117 62.6606C42.2306 61.434 41.5886 60.5458 40.5857 59.9961C39.5828 59.4464 38.3639 59.336 36.9289 59.6648L33.4573 60.4603L32.7334 57.3011L36.205 56.5056C37.4085 56.2298 38.3357 55.6519 38.9867 54.772C39.6555 53.8636 39.86 52.8424 39.6001 51.7083C39.4092 50.8751 39.0249 50.208 38.4473 49.707C37.8875 49.1776 37.2117 48.833 36.42 48.6734C35.623 48.4907 34.7963 48.4974 33.94 48.6936C32.5513 49.0118 31.4859 49.731 30.7438 50.851C30.0196 51.9426 29.8192 53.1944 30.1427 54.6062L26.3934 55.4653C26.0592 54.0072 26.0988 52.5853 26.5121 51.1995C26.92 49.7906 27.6872 48.5674 28.8135 47.5298C29.9578 46.4637 31.4325 45.7239 33.2378 45.3102C34.6958 44.9761 36.1392 44.9499 37.5679 45.2315C39.0144 45.4847 40.2646 46.0508 41.3187 46.9298C42.3958 47.8035 43.1041 48.981 43.4435 50.4622C43.7723 51.8971 43.6635 53.1766 43.1172 54.3005C42.594 55.4191 41.8684 56.2918 40.9402 56.9186L40.9799 57.0922C42.2789 57.2331 43.4448 57.6967 44.4776 58.4831C45.5335 59.2643 46.2338 60.407 46.5785 61.9114C46.9498 63.5315 46.8398 65.0183 46.2486 66.3717C45.6753 67.6967 44.7659 68.8308 43.5204 69.7739C42.2697 70.6938 40.8342 71.3394 39.2141 71.7106ZM62.4054 66.36C60.7622 66.7365 59.2246 66.7235 57.7925 66.3208C56.3836 65.9129 55.1105 65.1937 53.9731 64.1633C52.8356 63.1328 51.8668 61.8811 51.0664 60.408C50.2607 58.9119 49.6537 57.2727 49.2453 55.4906C48.837 53.7085 48.6724 51.9801 48.7515 50.3056C48.8253 48.6078 49.1498 47.0475 49.7251 45.6247C50.3003 44.2018 51.1333 43 52.224 42.0193C53.3378 41.0333 54.7164 40.352 56.3596 39.9755C58.0029 39.5989 59.5289 39.6146 60.9378 40.0226C62.3699 40.4252 63.6546 41.1418 64.792 42.1722C65.9294 43.2026 66.901 44.4659 67.7067 45.9621C68.507 47.4352 69.1114 49.0627 69.5197 50.8449C69.9281 52.627 70.0954 54.3669 70.0216 56.0646C69.9424 57.7392 69.6153 59.2879 69.04 60.7108C68.4647 62.1336 67.6202 63.3381 66.5064 64.3241C65.4157 65.3048 64.0487 65.9834 62.4054 66.36ZM61.5702 62.7147C63.2828 62.3223 64.5233 61.1977 65.2914 59.3408C66.0542 57.4609 66.075 54.9471 65.3538 51.7995C64.6378 48.675 63.5298 46.4442 62.0298 45.1071C60.5298 43.77 58.9235 43.2977 57.2108 43.6901C55.4981 44.0826 54.2577 45.2072 53.4896 47.064C52.7215 48.9209 52.6954 51.4115 53.4113 54.536C54.1273 57.6605 55.2263 59.9055 56.7085 61.271C58.2138 62.6313 59.8343 63.1125 61.5702 62.7147ZM86.1374 60.922C84.4942 61.2985 82.9565 61.2855 81.5245 60.8828C80.1156 60.4749 78.8424 59.7557 77.705 58.7253C76.5676 57.6948 75.5987 56.4431 74.7983 54.97C73.9927 53.4739 73.3856 51.8347 72.9773 50.0526C72.5689 48.2705 72.4043 46.5421 72.4834 44.8676C72.5572 43.1698 72.8818 41.6095 73.457 40.1867C74.0323 38.7638 74.8653 37.562 75.956 36.5813C77.0698 35.5953 78.4483 34.914 80.0916 34.5375C81.7348 34.1609 83.2609 34.1766 84.6698 34.5846C86.1018 34.9872 87.3866 35.7038 88.524 36.7342C89.6614 37.7646 90.6329 39.0279 91.4386 40.5241C92.239 41.9972 92.8433 43.6247 93.2517 45.4069C93.66 47.189 93.8273 48.9289 93.7535 50.6266C93.6744 52.3012 93.3472 53.8499 92.7719 55.2728C92.1967 56.6956 91.3521 57.9001 90.2383 58.8861C89.1476 59.8668 87.7806 60.5454 86.1374 60.922ZM85.3021 57.2767C87.0148 56.8843 88.2552 55.7597 89.0233 53.9028C89.7862 52.0229 89.807 49.5091 89.0857 46.3615C88.3698 43.237 87.2618 41.0062 85.7618 39.6691C84.2618 38.332 82.6554 37.8597 80.9428 38.2521C79.2301 38.6446 77.9897 39.7692 77.2215 41.626C76.4534 43.4829 76.4273 45.9735 77.1433 49.098C77.8592 52.2225 78.9583 54.4675 80.4404 55.833C81.9457 57.1933 83.5663 57.6745 85.3021 57.2767ZM106.178 51.6528L105.009 46.5495L99.8705 47.7268L99.1307 44.4982L104.269 43.3209L103.091 38.1828L106.32 37.443L107.497 42.581L112.601 41.4117L113.34 44.6403L108.237 45.8097L109.407 50.913L106.178 51.6528Z" fill="#24C00B"/>
</g>
<path d="M39.0991 88.1846L41.4694 98.5285L39.5725 98.9632L38.5688 94.5827L33.929 95.6458L34.9328 100.026L33.0359 100.461L30.6657 90.117L32.5625 89.6824L33.5538 94.0083L38.1935 92.9451L37.2023 88.6192L39.0991 88.1846ZM44.7393 89.7504C45.64 89.544 46.3535 89.5241 46.8801 89.6907C47.4136 89.8462 47.8098 90.1336 48.0687 90.553C48.3255 90.9634 48.5321 91.5097 48.6884 92.192L49.7078 96.6407L47.8792 97.0597L47.7197 96.3638C47.454 96.7502 47.173 97.0492 46.8768 97.2607C46.5896 97.4701 46.255 97.6186 45.8729 97.7062C45.0723 97.8896 44.3743 97.8102 43.7788 97.4679C43.1903 97.1144 42.8043 96.5374 42.6209 95.7368C42.4332 94.918 42.5385 94.2284 42.9368 93.668C43.342 93.0963 43.9858 92.7094 44.8683 92.5072C45.587 92.3425 46.2425 92.3408 46.8348 92.5019C46.7465 92.1582 46.6374 91.8912 46.5076 91.7007C46.3869 91.5081 46.2003 91.3833 45.9478 91.3263C45.6933 91.2601 45.3431 91.2781 44.8973 91.3803L43.6146 91.6742L43.2518 90.0912L44.7393 89.7504ZM45.8658 96.171C46.4208 96.0438 46.9355 95.6578 47.4101 95.0128L47.135 93.8119C46.5965 93.6768 46.0726 93.6676 45.5631 93.7843C45.1628 93.876 44.8572 94.0466 44.6462 94.296C44.4332 94.5363 44.3746 94.8657 44.4705 95.2842C44.5643 95.6936 44.7367 95.9653 44.9876 96.0993C45.2456 96.2221 45.5383 96.246 45.8658 96.171ZM53.8483 87.4333C54.5215 87.2791 55.1518 87.2926 55.7392 87.474C56.3356 87.6533 56.8492 88.0144 57.28 88.5572C57.7087 89.091 58.0242 89.7991 58.2264 90.6815C58.4286 91.564 58.454 92.3433 58.3025 93.0196C58.149 93.6867 57.8428 94.2309 57.3839 94.652C56.9342 95.071 56.3727 95.3577 55.6994 95.512C54.9716 95.6787 54.1985 95.5638 53.3799 95.1673L54.2492 98.961L52.4206 99.38L49.9409 88.5585L51.7695 88.1395L51.9071 88.7399C52.4643 88.0377 53.1114 87.6022 53.8483 87.4333ZM54.9799 93.9389C55.5986 93.7972 56.0212 93.4897 56.2479 93.0164C56.4725 92.5341 56.4952 91.9017 56.3159 91.1193C56.1366 90.3369 55.8409 89.7775 55.4287 89.4411C55.0164 89.1046 54.501 89.0073 53.8824 89.1491C53.291 89.2846 52.7483 89.6531 52.2542 90.2547L53.0328 93.6526C53.7213 93.9831 54.3704 94.0786 54.9799 93.9389ZM62.9636 85.3446C63.6368 85.1904 64.2671 85.2039 64.8545 85.3853C65.4509 85.5646 65.9645 85.9257 66.3953 86.4685C66.824 87.0023 67.1395 87.7104 67.3417 88.5928C67.5439 89.4753 67.5693 90.2546 67.4178 90.9309C67.2643 91.598 66.9581 92.1422 66.4992 92.5633C66.0495 92.9823 65.488 93.269 64.8148 93.4232C64.087 93.59 63.3138 93.4751 62.4952 93.0786L63.3645 96.8723L61.5359 97.2913L59.0562 86.4698L60.8848 86.0508L61.0224 86.6512C61.5796 85.949 62.2267 85.5135 62.9636 85.3446ZM64.0952 91.8502C64.7139 91.7085 65.1365 91.401 65.3632 90.9277C65.5878 90.4453 65.6105 89.813 65.4312 89.0306C65.2519 88.2482 64.9562 87.6888 64.544 87.3524C64.1317 87.0159 63.6163 86.9186 62.9977 87.0604C62.4063 87.1959 61.8636 87.5644 61.3695 88.1659L62.1481 91.5639C62.8367 91.8944 63.4857 91.9899 64.0952 91.8502ZM74.6535 82.8958L73.4729 92.4734C73.3971 93.1036 73.2763 93.6005 73.1107 93.964C72.9562 94.3345 72.7344 94.6199 72.4451 94.8203C72.1671 95.0276 71.787 95.1865 71.3048 95.297C70.9136 95.3866 70.5473 95.4179 70.206 95.3908L69.8401 93.7942C70.0822 93.8057 70.3533 93.7771 70.6535 93.7083C70.9992 93.6291 71.2488 93.4858 71.4024 93.2782C71.5671 93.0777 71.6837 92.7302 71.7524 92.2357L71.8436 91.5685L67.3527 84.5687L69.2359 84.1372L72.1647 88.8952L72.8659 83.3054L74.6535 82.8958ZM85.6103 88.6581C83.8726 89.0563 82.4521 88.8743 81.3487 88.1122C80.2452 87.35 79.5038 86.1411 79.1244 84.4853C78.8909 83.4664 78.877 82.5073 79.0827 81.608C79.2863 80.6995 79.7251 79.9192 80.399 79.2668C81.0821 78.6124 81.9968 78.1538 83.1431 77.8912C83.6253 77.7807 84.0622 77.7236 84.454 77.72C84.8528 77.7053 85.2914 77.7388 85.7697 77.8207L86.1543 79.4992C85.3229 79.2972 84.4568 79.2993 83.5562 79.5057C82.8738 79.662 82.3155 79.9623 81.8811 80.4066C81.4446 80.8417 81.151 81.3782 81.0003 82.016C80.8566 82.6426 80.8671 83.3152 81.0318 84.0339C81.3035 85.1781 81.8087 86.0247 82.5473 86.5736C83.2859 87.1225 84.1828 87.276 85.2382 87.0342C85.7021 86.9279 86.1379 86.761 86.5454 86.5336C86.9599 86.295 87.3836 85.992 87.8165 85.6247L88.7492 87.0627C88.2841 87.4565 87.7761 87.7884 87.2251 88.0583C86.6762 88.3373 86.1379 88.5372 85.6103 88.6581ZM92.6524 86.987C91.9064 87.1579 91.3251 87.1284 90.9085 86.8983C90.4898 86.6591 90.2055 86.212 90.0554 85.5569L87.8102 75.7589L89.6388 75.3399L91.7464 84.5375C91.8214 84.865 91.9281 85.0799 92.0665 85.1823C92.2048 85.2846 92.415 85.3035 92.6971 85.2389C92.9791 85.1742 93.223 85.0896 93.4288 84.985L93.7916 86.568C93.3869 86.766 93.0072 86.9057 92.6524 86.987ZM92.6897 75.2009L94.5183 74.7819L94.9905 76.8425L93.1619 77.2615L92.6897 75.2009ZM93.4652 78.5852L95.2938 78.1662L97.0418 85.7945L95.2132 86.2135L93.4652 78.5852ZM99.8923 81.565C100.355 82.9144 101.277 83.4307 102.66 83.1139C103.015 83.0326 103.35 82.9079 103.666 82.7398C103.982 82.5717 104.326 82.3396 104.699 82.0435L105.521 83.3775C105.141 83.7232 104.735 83.9982 104.303 84.2025C103.873 84.4159 103.371 84.5883 102.798 84.7196C101.952 84.9135 101.19 84.9109 100.513 84.7119C99.8332 84.5037 99.2689 84.1303 98.8199 83.5917C98.38 83.0509 98.0673 82.3757 97.8818 81.5661C97.6879 80.72 97.6814 79.9602 97.8622 79.2868C98.041 78.6043 98.3678 78.0459 98.8428 77.6115C99.3178 77.1771 99.8919 76.8828 100.565 76.7285C101.63 76.4846 102.535 76.6123 103.281 77.1115C104.035 77.5996 104.556 78.4521 104.844 79.6691L105.01 80.3924L99.8923 81.565ZM100.922 78.2842C100.03 78.4885 99.6013 79.1038 99.6354 80.1301L102.76 79.414C102.598 78.915 102.367 78.5754 102.067 78.3951C101.767 78.2148 101.386 78.1779 100.922 78.2842ZM109.634 74.7078C110.617 74.4827 111.402 74.5661 111.99 74.958C112.587 75.3479 113.014 76.1069 113.273 77.235L114.327 81.8338L112.498 82.2528L111.444 77.654C111.321 77.1173 111.122 76.7511 110.848 76.5555C110.58 76.3487 110.182 76.3058 109.655 76.4267C109.036 76.5684 108.475 76.9796 107.97 77.6602L109.196 83.0096L107.367 83.4286L105.619 75.8003L107.448 75.3813L107.61 76.0909C108.168 75.3502 108.843 74.8892 109.634 74.7078ZM117.324 75.0428L118.115 78.4953C118.19 78.8228 118.297 79.0377 118.435 79.1401C118.574 79.2424 118.788 79.2602 119.079 79.1935C119.371 79.1268 119.64 79.0269 119.887 78.8936L120.253 80.4902C119.759 80.7182 119.344 80.8708 119.007 80.9479C118.252 81.121 117.67 81.0868 117.26 80.8455C116.851 80.6043 116.57 80.1516 116.418 79.4874L115.495 75.4618L114.486 75.6932L114.107 74.042L115.117 73.8106L114.523 71.2178L116.352 70.7988L116.946 73.3916L118.692 72.9913L119.071 74.6425L117.324 75.0428ZM124.646 79.7134C124.054 79.8489 123.515 79.9198 123.028 79.926C122.541 79.9323 122.021 79.8745 121.466 79.7526L121.081 78.0741C121.626 78.2365 122.159 78.3252 122.679 78.3399C123.207 78.3436 123.743 78.2828 124.289 78.1578C125.063 77.9806 125.386 77.6145 125.258 77.0595C125.204 76.823 125.096 76.6658 124.935 76.5879C124.78 76.4988 124.554 76.4502 124.255 76.442L123.08 76.4528C122.344 76.4587 121.754 76.3304 121.311 76.0681C120.875 75.7946 120.582 75.3303 120.432 74.6753C120.069 73.0923 120.875 72.0747 122.849 71.6223C123.713 71.4243 124.62 71.3889 125.568 71.5163L125.937 73.1266C125.563 73.04 125.146 72.9966 124.686 72.9966C124.227 72.9966 123.761 73.0508 123.287 73.1592C122.496 73.3406 122.154 73.6678 122.263 74.1409C122.313 74.3592 122.413 74.5038 122.563 74.5747C122.723 74.6435 122.942 74.6795 123.22 74.6828L124.382 74.6751C125.158 74.6791 125.763 74.8133 126.197 75.0777C126.632 75.3421 126.931 75.8337 127.096 76.5524C127.281 77.3621 127.149 78.0387 126.699 78.5823C126.249 79.1258 125.565 79.5029 124.646 79.7134Z" fill="#2A2A2A"/>
</g>
<defs>
<filter id="filter0_d_246_103" x="-19.918" y="-3.11328" width="187.569" height="156.011" filterUnits="userSpaceOnUse" color-interpolation-filters="sRGB">
<feFlood flood-opacity="0" result="BackgroundImageFix"/>
<feColorMatrix in="SourceAlpha" type="matrix" values="0 0 0 0 0 0 0 0 0 0 0 0 0 0 0 0 0 0 127 0" result="hardAlpha"/>
<feOffset dy="12"/>
<feGaussianBlur stdDeviation="10"/>
<feComposite in2="hardAlpha" operator="out"/>
<feColorMatrix type="matrix" values="0 0 0 0 0 0 0 0 0 0 0 0 0 0 0 0 0 0 0.05 0"/>
<feBlend mode="normal" in2="BackgroundImageFix" result="effect1_dropShadow_246_103"/>
<feBlend mode="normal" in="SourceGraphic" in2="effect1_dropShadow_246_103" result="shape"/>
</filter>
<clipPath id="clip0_246_103">
<rect x="19.4141" y="37.9233" width="95" height="48" rx="24" transform="rotate(-12.9061 19.4141 37.9233)" fill="white"/>
</clipPath>
</defs>
</svg>
