<svg width="98" height="98" viewBox="0 0 98 98" fill="none" xmlns="http://www.w3.org/2000/svg">
<path fill-rule="evenodd" clip-rule="evenodd" d="M13.7574 3.53143C13.8332 3.53143 14.1363 4.40292 14.4205 5.4828C14.7046 6.54374 15.1972 7.96464 15.5382 8.64667C15.9171 9.40448 16.5613 10.257 17.2054 10.8822C17.7927 11.4127 18.7968 12.1137 19.441 12.4357C20.1041 12.7389 21.4681 13.2314 22.4912 13.5156C23.4953 13.7998 24.3289 14.084 24.3289 14.1408C24.3289 14.1976 23.4953 14.4629 22.4912 14.766C21.4681 15.0502 20.0283 15.5807 19.3083 15.9217C18.5695 16.3006 17.5843 16.9826 17.0728 17.4941C16.5613 17.9867 15.8792 18.9529 15.5382 19.6349C15.1972 20.317 14.6857 21.7379 14.3636 22.7988C14.0605 23.8787 13.7763 24.7502 13.7195 24.7502C13.6626 24.7502 13.3974 23.9166 13.0943 22.8935C12.8101 21.8894 12.3175 20.5254 12.0144 19.8812C11.6923 19.2182 10.9914 18.2141 10.4419 17.6267C9.83569 16.9826 8.98315 16.3385 8.22534 15.9596C7.54331 15.6185 6.12241 15.107 5.06147 14.7849C3.98159 14.4818 3.11011 14.1976 3.11011 14.1408C3.11011 14.084 3.9437 13.8187 4.96675 13.5156C5.97085 13.2314 7.33491 12.7389 7.97905 12.4357C8.64214 12.1137 9.64624 11.4127 10.2335 10.8822C10.8777 10.257 11.5218 9.40448 11.9007 8.64667C12.2417 7.96464 12.7533 6.54374 13.0564 5.46386C13.3595 4.40292 13.6816 3.53143 13.7574 3.53143ZM71.1238 3.55038C73.1888 3.53143 74.0792 3.60721 75.7654 3.98612C76.9021 4.23241 78.4367 4.66815 79.1755 4.95233C79.9144 5.21757 81.1837 5.80487 82.0173 6.24061C82.8509 6.67635 84.1771 7.50995 84.9539 8.09725C85.7306 8.68456 86.9431 9.76444 87.6251 10.4654C88.3072 11.1853 89.2544 12.2842 89.7091 12.9094C90.1638 13.5346 90.9406 14.8039 91.4142 15.7512C91.9068 16.6984 92.513 18.0625 92.7783 18.7824C93.0246 19.5023 93.4035 20.8285 93.5929 21.7189C93.8392 22.8557 93.9339 24.1439 93.9529 26.1711C93.9529 27.8572 93.8392 29.5433 93.6876 30.3391C93.555 31.059 93.1761 32.442 92.873 33.3703C92.5699 34.2986 91.9447 35.7953 91.49 36.6857C91.0353 37.5762 90.2207 38.9023 89.6902 39.6223C89.1408 40.3422 88.1746 41.4789 87.5494 42.142C86.9052 42.8051 85.7306 43.8281 84.9539 44.4154C84.1771 45.0217 82.7562 45.8932 81.8279 46.3857C80.8806 46.8783 79.346 47.5224 78.4177 47.8256C77.4705 48.1287 76.1253 48.5076 75.3865 48.6402C74.6287 48.7918 72.8857 48.9055 71.3132 48.9055C69.7408 48.9055 67.9978 48.7918 67.24 48.6402C66.5011 48.5076 65.1371 48.1287 64.2087 47.8256C63.2615 47.5224 61.7837 46.8973 60.8933 46.4426C60.0029 45.9879 58.6957 45.1732 57.9568 44.6428C57.2179 44.0933 56.1001 43.1271 55.4371 42.5019C54.774 41.8578 53.7509 40.6832 53.1636 39.9064C52.5574 39.1297 51.6859 37.7088 51.1933 36.7805C50.7197 35.8521 50.1134 34.4691 49.8482 33.7492C49.6019 33.0293 49.223 31.7031 49.0335 30.8127C48.7683 29.6381 48.6925 28.4066 48.6925 26.2658C48.6925 24.125 48.7683 22.8935 49.0335 21.7189C49.223 20.8285 49.6019 19.5023 49.8482 18.7824C50.1134 18.0625 50.7197 16.6984 51.1933 15.7512C51.6859 14.8039 52.5574 13.4019 53.1636 12.6252C53.7509 11.8484 54.774 10.6738 55.4371 10.0297C56.1001 9.40448 57.2179 8.43827 57.9568 7.88885C58.6957 7.35839 60.1355 6.4869 61.1775 5.97538C62.2195 5.44491 63.6593 4.83866 64.3982 4.63026C65.1371 4.40292 66.3685 4.08085 67.1453 3.89139C68.0546 3.70194 69.4755 3.56932 71.1238 3.55038ZM66.2169 14.2734C65.857 14.5765 65.4023 15.1449 65.175 15.5617C64.9666 15.9785 64.7582 16.7932 64.7203 17.3615C64.6634 17.9299 64.7392 18.7445 64.8908 19.1613C65.0234 19.5781 65.4402 20.2412 65.8001 20.658C66.1791 21.0558 66.8042 21.5484 67.1832 21.7379C67.581 21.9463 68.2252 22.1547 68.6041 22.2115C69.0398 22.2873 69.7597 22.2115 70.4039 22.0221C71.2185 21.7947 71.7111 21.5105 72.3552 20.8664C72.9994 20.2223 73.2835 19.7486 73.5109 18.915C73.7003 18.214 73.7572 17.5699 73.6814 17.0773C73.6056 16.6605 73.3972 16.0164 73.2078 15.6564C73.0373 15.2965 72.5447 14.6902 72.1279 14.3303C71.7111 13.9703 71.0291 13.5535 70.6312 13.4398C70.2333 13.3072 69.5513 13.1935 69.1345 13.2125C68.7177 13.2125 68.0357 13.3262 67.6189 13.4777C67.2021 13.6293 66.5769 13.9892 66.2169 14.2734ZM59.4724 35.9279L61.6511 38.1066L83.1541 16.6037C81.5437 14.9933 81.0322 14.5197 80.9753 14.5197C80.9185 14.5197 76.0685 19.3318 70.1765 25.2238L59.4724 35.9279ZM70.5554 31.3432C70.1955 31.6463 69.6839 32.3094 69.4187 32.8209C69.0966 33.5029 68.964 34.0523 68.964 34.8859C68.964 35.6437 69.0966 36.2689 69.3619 36.7805C69.5703 37.1973 70.0818 37.8224 70.4796 38.1824C70.8964 38.5424 71.5027 38.9402 71.8248 39.0918C72.1658 39.2244 72.9046 39.3381 73.4351 39.3381C74.0793 39.3381 74.7802 39.1865 75.3865 38.9023C75.898 38.656 76.58 38.1635 76.8832 37.8035C77.1863 37.4435 77.5462 36.8752 77.6789 36.5531C77.8304 36.2121 77.9441 35.4543 77.9441 34.8859C77.9441 34.3176 77.8115 33.5219 77.641 33.143C77.4894 32.7451 77.0916 32.1389 76.7505 31.7978C76.4095 31.4379 75.8412 31.0021 75.4812 30.8127C75.1212 30.6232 74.3824 30.4148 73.8708 30.358C73.2835 30.3012 72.6015 30.358 72.071 30.5285C71.5974 30.6801 70.9154 31.04 70.5554 31.3432ZM27.2654 36.8941C32.7216 36.8752 34.2941 36.932 35.1277 37.1594C35.696 37.3109 36.5865 37.6519 37.1169 37.8982C37.6285 38.1635 38.6136 38.8265 39.2957 39.3949C39.9777 39.9443 40.9818 40.9863 41.5312 41.7252C42.0806 42.4451 42.99 43.9797 43.5583 45.1164C44.1267 46.2721 44.7708 47.9203 45.0171 48.8107C45.415 50.2695 45.4529 50.8379 45.4529 54.6838C45.4529 58.6623 45.4339 59.0033 45.055 59.7043C44.8277 60.1211 44.354 60.7273 44.013 61.0494C43.6531 61.3715 43.1794 61.6746 42.9332 61.7504C42.5164 61.883 42.5164 61.9398 42.5164 64.6869C42.5164 66.2215 42.4216 67.8508 42.308 68.3244C42.1943 68.798 41.8912 69.6127 41.6449 70.1242C41.3796 70.6547 40.7734 71.4693 40.2808 71.9619C39.6367 72.606 39.4662 72.8902 39.6746 72.9281C39.8261 72.9849 40.4703 73.1555 41.0955 73.3449C41.7207 73.5154 42.9142 74.0269 43.7478 74.4627C44.9035 75.05 45.6802 75.6562 47.0632 77.0392C48.1242 78.1002 49.1662 79.3506 49.583 80.0705C49.9808 80.7525 50.5681 82.1166 51.4964 84.9016L51.6101 94.4689H41.0007V88.217H37.9695V94.4689H34.9382C31.9259 94.4689 31.907 94.4689 31.888 94.0521C31.888 93.8058 31.7365 91.5892 31.566 89.1074C31.3955 86.6256 31.2818 84.5605 31.3386 84.5037C31.3955 84.4658 31.9638 84.9394 32.608 85.5646C33.29 86.2088 33.972 86.7014 34.1994 86.7014C34.4078 86.7014 34.8246 86.474 35.1087 86.1898C35.5445 85.7541 35.696 85.3183 35.9802 83.7648C36.1507 82.7228 36.6244 80.1273 37.0222 77.9865C37.4201 75.8457 37.7042 74.0648 37.6664 74.008C37.6285 73.9512 36.9275 74.1974 36.1128 74.5385C35.3171 74.8984 34.5972 75.2394 34.5214 75.2963C34.4646 75.3721 34.1804 76.7172 33.8962 78.2707C33.631 79.8432 33.3468 81.264 33.271 81.4535C33.1574 81.7377 32.7595 81.3777 28.9326 77.3234H25.8066L21.525 81.8703L21.3355 80.8283C21.2218 80.2599 20.9187 78.7633 20.2556 75.2584L18.7779 74.6332C17.9822 74.2922 17.2433 74.0269 17.1675 74.0648C17.0728 74.0838 17.4896 76.7551 18.0769 79.9758C19.081 85.432 19.1947 85.8867 19.6683 86.2846C19.9335 86.5119 20.3314 86.7014 20.5398 86.7014C20.7482 86.7014 21.4492 86.1898 22.0933 85.5646C22.7564 84.9394 23.3248 84.4658 23.3816 84.5037C23.4384 84.5605 23.3816 86.1141 23.249 87.9707C23.1353 89.8273 22.9837 92.0439 22.8132 94.4689H16.7507V88.217H13.7195V94.4689H3.11011L3.18589 89.6947C3.24272 85.432 3.28062 84.75 3.65952 83.5754C3.88687 82.8555 4.26577 81.8324 4.49312 81.3019C4.7394 80.7904 5.28882 79.8432 5.70562 79.218C6.12241 78.5928 6.97495 77.5887 7.5812 76.9824C8.2064 76.3762 9.07788 75.6373 9.55151 75.3152C10.0251 74.9931 10.8777 74.5006 11.446 74.1974C12.0144 73.9133 12.9996 73.5344 13.6248 73.3449C14.25 73.1555 14.8941 72.9849 15.0457 72.9471C15.2541 72.8902 15.0646 72.606 14.4394 71.9619C13.9468 71.4693 13.3216 70.6547 13.0753 70.1242C12.8101 69.6127 12.5259 68.798 12.4123 68.3244C12.2986 67.8508 12.2039 66.2404 12.2228 61.9777L11.7302 61.7504C11.465 61.6178 10.9724 61.2578 10.6314 60.9736C10.3093 60.6705 9.81675 59.9695 9.57046 59.4012C9.13472 58.3971 9.13472 58.2644 9.2105 54.3049C9.28628 50.8947 9.36206 49.9853 9.70308 48.7728C9.93042 47.9582 10.3851 46.6699 10.7261 45.931C11.0482 45.1732 11.7113 43.9607 12.166 43.2219C12.6207 42.5019 13.3595 41.4789 13.7953 40.9484C14.25 40.4369 15.1404 39.5844 15.8224 39.0728C16.4855 38.5613 17.4138 37.974 17.8875 37.7656C18.3611 37.5572 19.1189 37.273 19.5925 37.1404C20.1988 36.9699 22.4343 36.9131 27.2654 36.8941ZM25.5792 49.2465C25.8255 50.1748 25.8445 50.5348 25.6929 50.9894C25.5603 51.3115 25.2572 51.6715 24.9919 51.8041C24.6699 51.9557 23.4195 52.0314 20.9566 52.0314C17.9632 52.0314 17.3191 52.0883 16.7697 52.3724C16.4097 52.543 15.955 52.9029 15.7656 53.1682C15.5761 53.4334 15.3677 53.9828 15.3109 54.3996C15.2541 54.8164 15.1025 55.3469 14.9888 55.5742C14.8562 55.8205 14.572 56.0857 14.3257 56.1994C14.0984 56.3131 13.7005 56.3889 13.4353 56.3889C13.1701 56.3889 12.7912 56.5594 12.5828 56.7678C12.3744 56.9762 12.2039 57.393 12.2039 57.715C12.2039 58.0371 12.3744 58.4539 12.5828 58.6623C12.7912 58.8707 13.1701 59.0412 13.4353 59.0412C13.7005 59.0412 14.1173 59.1549 14.3826 59.2875C14.6478 59.4012 14.932 59.6474 14.9888 59.799C15.0646 59.9506 15.1783 61.8262 15.2351 63.967C15.3109 67.3392 15.3867 67.9455 15.7087 68.6086C15.9171 69.0254 16.3908 69.6695 16.7507 70.0295C17.2433 70.5221 18.38 71.1094 21.1082 72.265C23.5142 73.2881 25.2572 73.9133 26.1287 74.0459C27.1328 74.2164 27.758 74.2164 28.6863 74.0648C29.4062 73.9322 31.4523 73.1744 33.6121 72.265C36.3402 71.1094 37.4769 70.5221 37.9695 70.0295C38.3294 69.6695 38.8031 69.0254 39.0115 68.6086C39.3335 67.9455 39.4093 67.3392 39.4851 63.967C39.5419 61.8262 39.6556 59.9506 39.7125 59.799C39.7882 59.6474 40.0724 59.4012 40.3376 59.2875C40.6029 59.1549 41.0197 59.0412 41.2849 59.0412C41.5501 59.0412 41.9291 58.8707 42.1375 58.6623C42.3458 58.4539 42.5164 58.0371 42.5164 57.715C42.5164 57.393 42.3458 56.9762 42.1375 56.7678C41.9291 56.5594 41.5501 56.3889 41.2849 56.3889C41.0197 56.3889 40.6218 56.3131 40.3755 56.1994C40.1482 56.0857 39.864 55.8205 39.7314 55.5742C39.6177 55.3469 39.4662 54.8164 39.4093 54.3996C39.3525 53.9828 39.1441 53.4334 38.9546 53.1682C38.7652 52.9029 38.3105 52.543 37.9505 52.3724C37.5148 52.1451 36.8707 52.0314 35.9802 52.0314C34.673 52.0314 34.5783 51.9935 30.0503 49.8527C27.5306 48.6592 25.4277 47.674 25.3708 47.674C25.314 47.674 25.2761 47.7687 25.2761 47.8635C25.2761 47.9771 25.4087 48.5834 25.5792 49.2465ZM80.6343 58.2834C80.7101 58.2834 80.9564 58.7381 81.1459 59.2875C81.3353 59.818 81.6005 60.7842 81.7142 61.4094C81.8279 62.0346 81.9226 63.0387 81.9226 63.6449C81.9226 64.2322 81.79 65.3879 81.6195 66.2025C81.449 66.9982 81.0701 68.2107 80.748 68.8928C80.4449 69.5748 79.8197 70.6357 79.3839 71.2609C78.9293 71.8861 78.1525 72.7955 77.641 73.2691C77.1294 73.7428 76.1632 74.5006 75.4812 74.9363C74.7992 75.3721 73.6435 75.9783 72.9236 76.2814C72.1847 76.5656 70.9343 76.9445 70.1197 77.115C69.324 77.2855 68.2251 77.4182 66.7664 77.4182V82.3439L54.6414 72.6818L66.6716 63.0197L66.7853 66.5246L68.1494 66.373C68.8882 66.2973 70.0628 66.1078 70.7449 65.9562C71.4269 65.7857 72.8667 65.2174 73.9656 64.6869C75.7085 63.8154 76.1632 63.4933 77.7546 61.9019C78.7587 60.8978 79.7628 59.6853 80.0281 59.1928C80.2744 58.6812 80.5585 58.2834 80.6343 58.2834ZM27.3412 80.2599C27.398 80.241 27.5496 80.3547 27.6822 80.4873C27.8148 80.6389 28.0421 82.7986 28.2884 86.1898C28.5158 89.1832 28.6863 91.9303 28.6863 92.9533H26.0339V92.3471C26.0339 92.006 26.2044 89.259 26.4128 86.2467C26.6402 83.2154 26.9054 80.6389 27.0001 80.5062C27.1138 80.3736 27.2654 80.2599 27.3412 80.2599ZM69.0777 16.2248C69.3619 16.2248 69.7408 16.2816 69.9113 16.3764C70.0818 16.4521 70.347 16.7363 70.4796 17.0394C70.6501 17.3615 70.688 17.7404 70.5933 18.0625C70.5175 18.3277 70.2523 18.7256 69.9871 18.915C69.7218 19.1045 69.324 19.275 69.0777 19.256C68.8503 19.256 68.4525 19.0476 68.1873 18.7824C67.9031 18.4982 67.6947 18.0625 67.6757 17.7025C67.6568 17.2857 67.7705 16.9637 68.0925 16.6605C68.3388 16.4142 68.7746 16.2248 69.0777 16.2248ZM73.6814 33.3514C73.9845 33.4082 74.4013 33.6545 74.5908 33.9008C74.7802 34.1281 74.9318 34.6017 74.9128 34.9428C74.9128 35.3785 74.7613 35.6627 74.3824 35.9279C74.0982 36.1553 73.6814 36.3258 73.4351 36.3068C73.2078 36.3068 72.8857 36.25 72.7152 36.1742C72.5447 36.0795 72.2794 35.7953 72.1468 35.5111C71.9763 35.1701 71.9384 34.7912 72.0142 34.4691C72.1089 34.2039 72.3742 33.806 72.6394 33.6166C72.9615 33.3514 73.2835 33.2756 73.6814 33.3514ZM21.7712 55.7447C22.2828 55.8016 23.0216 56.0099 23.3816 56.1994C23.7416 56.3889 24.272 56.7867 24.5562 57.0898C24.8404 57.374 25.2382 57.9992 25.4466 58.4728C25.655 58.9465 25.8445 59.5148 25.8445 59.7611C25.8445 60.159 25.7687 60.1779 24.3667 60.1779C22.908 60.1779 22.908 60.1779 22.6238 59.5527C22.4533 59.2117 22.1123 58.8707 21.8091 58.757C21.4681 58.6307 21.1208 58.6307 20.7671 58.757C20.483 58.8707 20.123 59.2117 19.9714 59.5527C19.6873 60.1779 19.6873 60.1779 18.2095 60.1779C16.8265 60.1779 16.7507 60.159 16.7507 59.7611C16.7507 59.5148 16.9402 58.9465 17.1486 58.4728C17.357 57.9992 17.7548 57.374 18.039 57.0898C18.3232 56.7867 18.7968 56.4078 19.1189 56.2373C19.422 56.0857 19.9335 55.8773 20.2556 55.8015C20.5587 55.7258 21.2408 55.7068 21.7712 55.7447ZM33.8962 55.7447C34.4078 55.8016 35.1466 56.0099 35.5066 56.1994C35.8666 56.3889 36.397 56.7867 36.6812 57.0898C36.9654 57.374 37.3632 57.9992 37.5716 58.4728C37.78 58.9465 37.9695 59.5148 37.9695 59.7611C37.9695 60.159 37.8937 60.1779 36.4917 60.1779C35.033 60.1779 35.033 60.1779 34.7488 59.5527C34.5783 59.2117 34.2373 58.8707 33.9341 58.757C33.5931 58.6307 33.2458 58.6307 32.8921 58.757C32.608 58.8707 32.248 59.2117 32.0964 59.5527C31.8123 60.1779 31.8123 60.1779 30.3345 60.1779C28.9515 60.1779 28.8757 60.159 28.8757 59.7611C28.8757 59.5148 29.0652 58.9465 29.2736 58.4728C29.482 57.9992 29.8798 57.374 30.164 57.0898C30.4482 56.7867 30.9218 56.4078 31.2439 56.2373C31.547 56.0857 32.0585 55.8773 32.3806 55.8015C32.6837 55.7258 33.3658 55.7068 33.8962 55.7447ZM21.2408 66.4299H22.6996C24.0257 66.4299 24.1773 66.4678 24.5562 66.9414C24.8025 67.2256 25.2761 67.5666 25.5982 67.6992C25.9392 67.8318 26.7349 67.9455 27.3601 67.9455C27.9853 67.9455 28.781 67.8318 29.1031 67.6992C29.4441 67.5666 29.9177 67.2256 30.1451 66.9414C30.5429 66.4678 30.6945 66.4299 32.0017 66.4299C33.0058 66.4299 33.4226 66.5056 33.4226 66.6762C33.4226 66.7898 33.3468 67.2066 33.2332 67.5666C33.1384 67.9266 32.7406 68.6086 32.3427 69.0633C31.9449 69.518 31.2439 70.0863 30.7703 70.3326C30.2966 70.56 29.3115 70.8631 28.5916 70.9767C27.5685 71.1473 26.9812 71.1473 26.0339 70.9767C25.3519 70.8631 24.4994 70.5978 24.1394 70.4084C23.7794 70.2379 23.1921 69.84 22.8322 69.5369C22.4912 69.2338 22.0554 68.7412 21.866 68.4191C21.6765 68.116 21.4492 67.5287 21.3734 67.1498L21.2408 66.4299Z" fill="#323032"/>
</svg>
