<svg width="98" height="98" viewBox="0 0 98 98" fill="none" xmlns="http://www.w3.org/2000/svg">
<path fill-rule="evenodd" clip-rule="evenodd" d="M15.333 3.54987H21.2061C26.9844 3.53093 27.098 3.54987 28.6895 4.02351C29.5799 4.28874 30.8113 4.78132 31.4365 5.14128C32.0617 5.4823 33.1227 6.25905 33.7857 6.8653C34.4678 7.4905 35.415 8.62722 35.9266 9.40398C36.4381 10.1997 37.0822 11.5069 37.3475 12.3405C37.7643 13.6288 37.859 14.3108 37.9158 16.7926C37.9916 19.2934 38.0674 19.786 38.3516 20.1081C38.56 20.3165 38.882 20.8659 39.0904 21.3395C39.2988 21.8132 39.4883 22.5331 39.4883 22.9499C39.4883 23.3667 39.3746 24.0487 39.242 24.4466C39.1283 24.8633 38.7115 25.5454 38.3326 25.9622C37.9727 26.3979 37.3853 26.8716 36.4381 27.3073V30.1491C36.4381 31.7026 36.3623 33.3698 36.2486 33.8434C36.135 34.3171 35.8318 35.1128 35.5666 35.6432C35.3014 36.1548 34.8656 36.8936 34.5814 37.2536C34.2783 37.6135 33.5963 38.2198 33.0279 38.5987C32.4596 38.9776 30.5461 39.9059 28.7842 40.6637C27.0223 41.4216 25.0898 42.2173 24.5215 42.4257C23.7068 42.7288 23.0248 42.8046 21.3008 42.8046C19.5768 42.8046 18.8947 42.7288 18.0801 42.4257C17.5117 42.2173 15.5793 41.4216 13.8174 40.6637C12.0365 39.9059 10.142 38.9776 9.57363 38.5987C9.00527 38.2198 8.22852 37.4809 7.83066 36.9694C7.43281 36.4389 6.92129 35.5485 6.69395 34.9801C6.31504 34.0708 6.2582 33.5403 6.12559 27.3073L5.53828 27.0231C5.21621 26.8716 4.62891 26.3979 4.26895 25.9622C3.89004 25.5454 3.47324 24.8633 3.35957 24.4466C3.22695 24.0487 3.11328 23.3667 3.11328 22.9499C3.11328 22.5331 3.30273 21.8132 3.51113 21.3395C3.71953 20.8659 4.0416 20.3165 4.25 20.1081C4.53418 19.786 4.60996 19.2934 4.68574 16.7926C4.74258 14.3108 4.8373 13.6288 5.2541 12.3405C5.53828 11.488 6.14453 10.1997 6.675 9.40398C7.18652 8.62722 8.05801 7.54733 8.62637 7.03581C9.19473 6.50534 10.123 5.78542 10.6725 5.42546C11.2408 5.0655 12.5291 4.49714 13.5143 4.15612L15.333 3.54987ZM19.5957 16.3759C19.4441 16.66 19.1031 17.001 18.8379 17.1147C18.5158 17.2852 17.2654 17.361 14.8215 17.361C12.0555 17.361 11.1461 17.4178 10.6914 17.6452C10.3883 17.7967 9.95254 18.1567 9.74414 18.4409C9.53574 18.744 9.3084 19.2745 9.25156 19.6344C9.19473 19.9944 9.08105 20.5059 8.98633 20.7712C8.8916 21.0364 8.60742 21.3585 8.34219 21.4721C8.07695 21.6048 7.64121 21.7184 7.37598 21.7184C7.0918 21.7184 6.76973 21.9079 6.52344 22.2299C6.31504 22.5331 6.14453 22.9309 6.14453 23.1393C6.14453 23.3477 6.29609 23.6887 6.48555 23.8971C6.675 24.1245 7.14863 24.3518 7.56543 24.4087C7.98223 24.4844 8.49375 24.7307 8.70215 24.9391C9.06211 25.318 9.1 25.6969 9.17578 29.3723C9.27051 33.294 9.28945 33.3887 9.80098 34.3171C10.0852 34.8286 10.6156 35.4917 10.9945 35.7759C11.3545 36.079 13.3816 37.0452 15.4846 37.9546L19.3115 39.6217H23.29C29.1631 37.102 31.1713 36.1548 31.5312 35.8895C31.9102 35.6243 32.4596 34.9423 32.7627 34.3739L33.3311 33.3698C33.5205 25.6969 33.5584 25.318 33.8994 24.9391C34.1078 24.7307 34.6193 24.4844 35.0361 24.4087C35.4529 24.3518 35.9455 24.1245 36.135 23.8971C36.3244 23.6887 36.476 23.3477 36.476 23.1393C36.476 22.9309 36.3055 22.5331 36.0971 22.2299C35.8508 21.9079 35.5287 21.7184 35.2256 21.7184C34.9793 21.7184 34.5436 21.6048 34.2783 21.4721C34.0131 21.3585 33.7289 21.0364 33.6342 20.7712C33.5395 20.5059 33.4258 19.9944 33.3689 19.6344C33.3121 19.2745 33.0658 18.7251 32.8195 18.4219C32.5922 18.1188 32.2133 17.7778 32.0049 17.6641C31.7965 17.5505 30.9061 17.4178 30.0156 17.361C28.4432 17.2473 28.3484 17.2094 23.8584 15.0307C21.3576 13.7993 19.2736 12.8141 19.2168 12.8141C19.141 12.8141 19.2736 13.4962 19.501 14.3298C19.8609 15.7317 19.8609 15.9022 19.5957 16.3759ZM69.8955 3.54987H75.7686C81.5658 3.53093 81.6795 3.54987 83.252 4.02351C84.1424 4.28874 85.3738 4.78132 85.999 5.14128C86.6242 5.4823 87.6852 6.25905 88.3672 6.8653C89.0303 7.4905 89.9965 8.62722 90.508 9.40398C91.0195 10.1997 91.6447 11.5069 91.91 12.3405C92.3268 13.6288 92.4215 14.3108 92.4973 16.7926C92.573 19.2934 92.6299 19.786 92.933 20.1081C93.1225 20.3165 93.4445 20.8659 93.6719 21.3395C93.8803 21.8132 94.0508 22.5331 94.0508 22.9499C94.0508 23.3667 93.9561 24.0487 93.8234 24.4466C93.6908 24.8633 93.274 25.5454 92.9141 25.9622C92.5352 26.3979 91.9479 26.8716 91.0195 27.3073V30.1491C91.0195 31.7026 90.9248 33.3698 90.8301 33.8434C90.7164 34.3171 90.4133 35.1128 90.148 35.6432C89.8828 36.1548 89.4281 36.8936 89.1439 37.2536C88.8598 37.6135 88.1588 38.2198 87.6094 38.5987C87.041 38.9776 85.1275 39.9059 83.3467 40.6637C81.5848 41.4216 79.6713 42.2173 79.084 42.4257C78.2693 42.7288 77.5873 42.8046 75.8633 42.8046C74.1582 42.8046 73.4762 42.7288 72.6426 42.4257C72.0742 42.2173 70.1607 41.4216 68.3799 40.6637C66.618 39.9059 64.7045 38.9776 64.1361 38.5987C63.5678 38.2198 62.791 37.4809 62.3932 36.9694C62.0143 36.4389 61.5027 35.5485 61.2564 34.9801C60.8775 34.0708 60.8207 33.5403 60.707 27.3073L60.1008 27.0231C59.7787 26.8716 59.2104 26.3979 58.8314 25.9622C58.4715 25.5454 58.0547 24.8633 57.9221 24.4466C57.7895 24.0487 57.6947 23.3667 57.6947 22.9499C57.6947 22.5331 57.8652 21.8132 58.0736 21.3395C58.301 20.8659 58.623 20.3165 58.8125 20.1081C59.1156 19.786 59.1725 19.2934 59.2482 16.7926C59.324 14.3108 59.4187 13.6288 59.8355 12.3405C60.1008 11.488 60.726 10.1997 61.2375 9.40398C61.749 8.62722 62.6395 7.54733 63.1889 7.03581C63.7572 6.50534 64.6855 5.78542 65.2539 5.42546C65.8223 5.0655 67.0916 4.49714 68.0957 4.15612L69.8955 3.54987ZM74.1582 16.3759C73.9877 16.66 73.6467 17.001 73.4004 17.1147C73.0783 17.2852 71.809 17.361 69.365 17.361C66.599 17.361 65.6896 17.4178 65.2539 17.6452C64.9318 17.7967 64.515 18.1567 64.3066 18.4409C64.0793 18.744 63.8709 19.2745 63.8141 19.6344C63.7572 19.9944 63.6246 20.5059 63.5299 20.7712C63.4352 21.0364 63.151 21.3585 62.8857 21.4721C62.6205 21.6048 62.2037 21.7184 61.9385 21.7184C61.6354 21.7184 61.3133 21.9079 61.0859 22.2299C60.8586 22.5331 60.6881 22.9309 60.6881 23.1393C60.707 23.3477 60.8586 23.6887 61.0291 23.8971C61.2186 24.1245 61.7111 24.3518 62.1279 24.4087C62.5447 24.4844 63.0563 24.7307 63.2646 24.9391C63.6057 25.318 63.6436 25.6969 63.7383 29.3534C63.833 33.294 63.833 33.3887 64.3635 34.3171C64.6477 34.8286 65.1781 35.4917 65.5381 35.7759C65.898 36.079 67.9252 37.0452 70.0281 37.9546L73.874 39.6217H77.8525C83.7256 37.102 85.7338 36.1548 86.0938 35.8895C86.4537 35.6243 87.0031 34.9423 87.3252 34.3739L87.8936 33.3698C88.083 25.6969 88.1209 25.318 88.4619 24.9391C88.6703 24.7307 89.1818 24.4844 89.5986 24.4087C90.0154 24.3518 90.508 24.1245 90.6975 23.8971C90.868 23.6887 91.0195 23.3477 91.0385 23.1393C91.0385 22.9309 90.868 22.5331 90.6406 22.2299C90.4133 21.9079 90.0912 21.7184 89.7881 21.7184C89.5229 21.7184 89.1061 21.6048 88.8408 21.4721C88.5756 21.3585 88.2914 21.0364 88.1967 20.7712C88.102 20.5059 87.9693 19.9944 87.9125 19.6344C87.8557 19.2745 87.6094 18.7251 87.382 18.4219C87.1357 18.1188 86.7758 17.7778 86.5674 17.6641C86.359 17.5505 85.4686 17.4178 84.5781 17.361C83.0057 17.2473 82.892 17.2094 78.6104 15.1255C76.2043 13.9508 74.1203 12.9467 73.9688 12.9089C73.7225 12.852 73.7414 13.0604 74.0635 14.3487C74.4045 15.7128 74.4234 15.9022 74.1582 16.3759ZM48.4873 36.8936C53.9436 36.8747 55.516 36.9315 56.3496 37.1589C56.918 37.3104 57.8084 37.6514 58.3389 37.8977C58.8504 38.163 59.8355 38.826 60.5176 39.3944C61.1996 39.9438 62.2037 40.9858 62.7531 41.7057C63.3025 42.4446 64.2119 43.9602 64.7803 45.1159C65.3486 46.2526 65.9928 47.9198 66.2391 48.8102C66.6369 50.269 66.6748 50.8374 66.6748 54.6833C66.6748 58.6618 66.6559 59.0028 66.277 59.7038C66.0496 60.1206 65.576 60.7268 65.235 61.0489C64.875 61.352 64.4014 61.6741 64.1551 61.7499C63.7383 61.8825 63.7383 61.9393 63.7383 64.6675C63.7383 66.221 63.6436 67.8503 63.5299 68.3239C63.4162 68.7975 63.1131 69.5932 62.8668 70.1237C62.6016 70.6352 61.9953 71.4688 61.5027 71.9614C60.8586 72.6055 60.6881 72.8897 60.8965 72.9276C61.048 72.9844 61.6922 73.155 62.3174 73.3444C62.9426 73.5149 64.1361 74.0264 64.9697 74.4432C66.1254 75.0495 66.9021 75.6557 68.2852 77.0387C69.3461 78.0997 70.3881 79.3501 70.8049 80.07C71.2027 80.752 71.79 82.1161 72.7184 84.901L72.832 94.4684H62.2227V88.2165H59.1914V94.4684H56.1602C53.1479 94.4684 53.1289 94.4684 53.11 94.0327C53.11 93.8053 52.9584 91.5887 52.7879 89.1069C52.6174 86.6251 52.5037 84.5411 52.5605 84.5032C52.6174 84.4653 53.1857 84.9389 53.8299 85.5641C54.5119 86.2083 55.1939 86.7009 55.4213 86.7009C55.6297 86.7009 56.0465 86.4735 56.3307 86.1704C56.7664 85.7536 56.918 85.3178 57.2021 83.7643C57.3727 82.7223 57.8463 80.1268 58.2441 77.986C58.642 75.8452 58.9262 74.0643 58.8883 74.0075C58.8504 73.9507 58.1494 74.1969 57.3348 74.538C56.5391 74.8979 55.8191 75.2389 55.7434 75.2958C55.6865 75.3716 55.4023 76.6977 55.1182 78.2702C54.8529 79.8237 54.5688 81.2635 54.493 81.453C54.3793 81.7372 53.9814 81.3772 50.1545 77.3229H47.0285L42.7469 81.8698L42.5574 80.8278C42.4437 80.2594 42.1406 78.7628 41.4775 75.2579L39.9998 74.6327C39.2041 74.2917 38.4652 74.0264 38.3895 74.0454C38.2947 74.0833 38.7115 76.7356 39.2988 79.9753C40.3029 85.4315 40.4166 85.8862 40.8902 86.2651C41.1555 86.5114 41.5533 86.7009 41.7617 86.7009C41.9701 86.7009 42.6711 86.1893 43.3152 85.5641C43.9783 84.9389 44.5467 84.4653 44.6035 84.5032C44.6604 84.56 44.6035 86.1135 44.4709 87.9702C44.3572 89.8268 44.2057 92.0434 44.0352 94.4684H37.9727V88.2165H34.9414V94.4684H24.332L24.4078 89.6753C24.4646 85.4315 24.5215 84.7495 24.8814 83.5749C25.1088 82.836 25.4877 81.813 25.715 81.3014C25.9613 80.771 26.5107 79.8426 26.9275 79.2175C27.3443 78.5923 28.1969 77.5882 28.8031 76.9819C29.4283 76.3757 30.2998 75.6368 30.7734 75.3147C31.2471 74.9926 32.0996 74.5001 32.668 74.1969C33.2363 73.9128 34.2215 73.5339 34.8467 73.3444C35.4719 73.155 36.116 72.9844 36.2676 72.9465C36.476 72.8897 36.2865 72.6055 35.6613 71.9614C35.1688 71.4688 34.5436 70.6352 34.2973 70.1237C34.032 69.5932 33.7479 68.7975 33.6342 68.3239C33.5205 67.8503 33.4258 66.2399 33.4447 61.9772L32.9521 61.7309C32.6869 61.6173 32.1943 61.2573 31.8533 60.9731C31.5312 60.67 31.0387 59.969 30.7924 59.4007C30.3566 58.3965 30.3566 58.2639 30.4324 54.3044C30.5082 50.8942 30.584 49.9848 30.925 48.7534C31.1523 47.9577 31.607 46.6694 31.948 45.9116C32.2701 45.1727 32.9332 43.9413 33.3879 43.2214C33.8426 42.4825 34.5814 41.4594 35.0172 40.9479C35.4719 40.4175 36.3623 39.5839 37.0443 39.0723C37.7074 38.5608 38.6357 37.9735 39.1094 37.7651C39.583 37.5567 40.3408 37.2725 40.8145 37.1399C41.4207 36.9694 43.6562 36.9126 48.4873 36.8936ZM46.8012 49.227C47.0475 50.1743 47.0664 50.5342 46.9148 50.9889C46.7822 51.2921 46.4791 51.671 46.2139 51.7846C45.8918 51.9552 44.6414 52.0309 42.1785 52.0309C39.1852 52.0309 38.541 52.0878 37.9916 52.3719C37.6316 52.5424 37.177 52.9024 36.9875 53.1676C36.798 53.4329 36.5896 53.9823 36.5328 54.3991C36.476 54.8159 36.3244 55.3464 36.2107 55.5737C36.0781 55.82 35.7939 56.0852 35.5477 56.1989C35.3203 56.2936 34.9225 56.3883 34.6572 56.3883C34.392 56.3883 34.0131 56.5589 33.8047 56.7673C33.5963 56.9757 33.4258 57.3924 33.4258 57.7145C33.4258 58.0366 33.5963 58.4534 33.8047 58.6618C34.0131 58.8702 34.392 59.0407 34.6572 59.0407C34.9225 59.0407 35.3393 59.1544 35.6045 59.268C35.8697 59.4007 36.1539 59.6469 36.2107 59.7985C36.2865 59.9501 36.4002 61.8257 36.457 63.9665C36.5328 67.3387 36.6086 67.945 36.9307 68.6081C37.1391 69.0249 37.6127 69.669 37.9727 70.029C38.4652 70.5216 39.602 71.1089 42.3301 72.2645C44.7361 73.2876 46.4791 73.9128 47.3506 74.0454C48.3547 74.2159 48.9799 74.2159 49.9082 74.0643C50.6281 73.9317 52.6742 73.1739 54.834 72.2645C57.5621 71.1089 58.6988 70.5216 59.1914 70.029C59.5514 69.669 60.025 69.0249 60.2334 68.6081C60.5555 67.945 60.6312 67.3387 60.707 63.9665C60.7639 61.8257 60.8775 59.9501 60.9344 59.7985C61.0102 59.6469 61.2943 59.4007 61.5596 59.268C61.8248 59.1544 62.2416 59.0407 62.5068 59.0407C62.7721 59.0407 63.151 58.8702 63.3594 58.6618C63.5678 58.4534 63.7383 58.0366 63.7383 57.7145C63.7383 57.3924 63.5678 56.9757 63.3594 56.7673C63.151 56.5589 62.7721 56.3883 62.5068 56.3883C62.2416 56.3883 61.8438 56.2936 61.5975 56.1989C61.3701 56.0852 61.0859 55.82 60.9533 55.5737C60.8396 55.3464 60.6881 54.8159 60.6313 54.3991C60.5744 53.9823 60.366 53.4329 60.1766 53.1676C59.9871 52.9024 59.5324 52.5424 59.1725 52.3719C58.7367 52.1446 58.0926 52.0309 57.2021 52.0309C55.8949 52.0309 55.8002 51.993 51.2723 49.8522C48.7525 48.6587 46.6496 47.6735 46.5928 47.6735C46.5359 47.6735 46.498 47.7493 46.498 47.863C46.498 47.9577 46.6307 48.5829 46.8012 49.227ZM21.3008 45.9684C21.6607 45.9684 22.0396 46.1389 22.3428 46.4421C22.6459 46.7452 22.8164 47.1241 22.8164 47.4841C22.8164 47.8251 22.627 48.2419 22.3428 48.526C22.0586 48.8292 21.6797 48.9997 21.3008 48.9997C20.9408 48.9997 20.5619 48.8292 20.2588 48.526C19.9557 48.2229 19.7852 47.844 19.7852 47.4841C19.8041 47.1241 19.9936 46.7073 20.2588 46.4421C20.543 46.1389 20.9219 45.9684 21.3008 45.9684ZM75.8633 45.9684C76.2232 45.9684 76.6021 46.1389 76.9053 46.4421C77.2084 46.7452 77.3789 47.1241 77.3789 47.4841C77.3789 47.8251 77.1895 48.2419 76.9053 48.526C76.6211 48.8292 76.2422 48.9997 75.8633 48.9997C75.5033 48.9997 75.1244 48.8292 74.8213 48.526C74.5182 48.2229 74.3477 47.844 74.3477 47.4841C74.3666 47.1241 74.5561 46.7073 74.8213 46.4421C75.1055 46.1389 75.4844 45.9684 75.8633 45.9684ZM21.3008 52.0309C21.6607 52.0309 22.0396 52.2014 22.3428 52.5046C22.6459 52.8077 22.8164 53.1866 22.8164 53.5466C22.8164 53.8876 22.627 54.3044 22.3428 54.5885C22.0586 54.8917 21.6797 55.0622 21.3008 55.0622C20.9408 55.0622 20.5619 54.8917 20.2588 54.5885C19.9557 54.2854 19.7852 53.9065 19.7852 53.5466C19.8041 53.1866 19.9936 52.7698 20.2588 52.5046C20.543 52.2014 20.9219 52.0309 21.3008 52.0309ZM75.8633 52.0309C76.2232 52.0309 76.6021 52.2014 76.9053 52.5046C77.2084 52.8077 77.3789 53.1866 77.3789 53.5466C77.3789 53.8876 77.1895 54.3044 76.9053 54.5885C76.6211 54.8917 76.2422 55.0622 75.8633 55.0622C75.5033 55.0622 75.1244 54.8917 74.8213 54.5885C74.5182 54.2854 74.3477 53.9065 74.3477 53.5466C74.3666 53.1866 74.5561 52.7698 74.8213 52.5046C75.1055 52.2014 75.4844 52.0309 75.8633 52.0309ZM21.3008 58.0934C21.6607 58.0934 22.0396 58.2639 22.3428 58.5671C22.6459 58.8702 22.8164 59.2491 22.8164 59.6091C22.8164 59.9501 22.627 60.3669 22.3428 60.651C22.0586 60.9542 21.6797 61.1247 21.3008 61.1247C20.9408 61.1247 20.5619 60.9542 20.2588 60.651C19.9557 60.3479 19.7852 59.969 19.7852 59.6091C19.8041 59.2491 19.9936 58.8323 20.2588 58.5671C20.543 58.2639 20.9219 58.0934 21.3008 58.0934ZM75.8633 58.0934C76.2232 58.0934 76.6021 58.2639 76.9053 58.5671C77.2084 58.8702 77.3789 59.2491 77.3789 59.6091C77.3789 59.9501 77.1895 60.3669 76.9053 60.651C76.6211 60.9542 76.2422 61.1247 75.8633 61.1247C75.5033 61.1247 75.1244 60.9542 74.8213 60.651C74.5182 60.3479 74.3477 59.969 74.3477 59.6091C74.3666 59.2491 74.5561 58.8323 74.8213 58.5671C75.1055 58.2639 75.4844 58.0934 75.8633 58.0934ZM21.3008 64.1559C21.6607 64.1559 22.0396 64.3264 22.3428 64.6296C22.6459 64.9327 22.8164 65.3116 22.8164 65.6716C22.8164 66.0126 22.627 66.4294 22.3428 66.7135C22.0586 67.0167 21.6797 67.1872 21.3008 67.1872C20.9408 67.1872 20.5619 67.0167 20.2588 66.7135C19.9557 66.4104 19.7852 66.0315 19.7852 65.6716C19.8041 65.3116 19.9936 64.8948 20.2588 64.6296C20.543 64.3264 20.9219 64.1559 21.3008 64.1559ZM27.3633 64.1559C27.7232 64.1559 28.1021 64.3264 28.4053 64.6296C28.7084 64.9327 28.8789 65.3116 28.8789 65.6716C28.8789 66.0126 28.6895 66.4294 28.4053 66.7135C28.1211 67.0167 27.7422 67.1872 27.3633 67.1872C27.0033 67.1872 26.6244 67.0167 26.3213 66.7135C26.0182 66.4104 25.8477 66.0315 25.8477 65.6716C25.8666 65.3116 26.0561 64.8948 26.3213 64.6296C26.6055 64.3264 26.9844 64.1559 27.3633 64.1559ZM69.8008 64.1559C70.1607 64.1559 70.5396 64.3264 70.8428 64.6296C71.1459 64.9327 71.3164 65.3116 71.3164 65.6716C71.3164 66.0126 71.127 66.4294 70.8428 66.7135C70.5586 67.0167 70.1797 67.1872 69.8008 67.1872C69.4408 67.1872 69.0619 67.0167 68.7588 66.7135C68.4557 66.4104 68.2852 66.0315 68.2852 65.6716C68.3041 65.3116 68.4936 64.8948 68.7588 64.6296C69.043 64.3264 69.4219 64.1559 69.8008 64.1559ZM75.8633 64.1559C76.2232 64.1559 76.6021 64.3264 76.9053 64.6296C77.2084 64.9327 77.3789 65.3116 77.3789 65.6716C77.3789 66.0126 77.1895 66.4294 76.9053 66.7135C76.6211 67.0167 76.2422 67.1872 75.8633 67.1872C75.5033 67.1872 75.1244 67.0167 74.8213 66.7135C74.5182 66.4104 74.3477 66.0315 74.3477 65.6716C74.3666 65.3116 74.5561 64.8948 74.8213 64.6296C75.1055 64.3264 75.4844 64.1559 75.8633 64.1559ZM48.5631 80.2594C48.6199 80.2405 48.7715 80.3542 48.9041 80.4868C49.0367 80.6384 49.2641 82.7981 49.5103 86.1704C49.7377 89.1827 49.9082 91.9298 49.9082 92.9528H47.2559V92.3276C47.2559 92.0055 47.4264 89.2585 47.6348 86.2462C47.8621 83.2149 48.1273 80.6383 48.2221 80.5057C48.3357 80.3731 48.4873 80.2594 48.5631 80.2594ZM15.1436 20.2217C15.5604 20.2028 16.3182 20.3544 16.8297 20.5249C17.4612 20.7522 18.0296 21.1564 18.5348 21.7374C18.9705 22.211 19.4252 22.9309 19.5389 23.3477C19.6715 23.7456 19.7852 24.2382 19.7852 24.4087C19.7852 24.7118 19.5957 24.7497 18.3074 24.7497C16.8486 24.7497 16.8486 24.7497 16.5645 24.1245C16.3939 23.7835 16.0529 23.4425 15.7498 23.3288C15.4088 23.2025 15.0615 23.2025 14.7078 23.3288C14.4236 23.4425 14.0637 23.7835 13.9121 24.1245C13.6279 24.7497 13.6279 24.7497 12.1502 24.7497C10.8809 24.7497 10.6914 24.7118 10.6914 24.4087C10.6914 24.2382 10.8051 23.7456 10.9188 23.3288C11.0703 22.8741 11.525 22.1921 12.1123 21.6237C12.6238 21.0932 13.3627 20.5628 13.7227 20.4491C14.0826 20.3354 14.7268 20.2407 15.1436 20.2217ZM27.2686 20.2217C27.6854 20.2028 28.4432 20.3544 28.9547 20.5249C29.5862 20.7522 30.1546 21.1564 30.6598 21.7374C31.0955 22.211 31.5502 22.9309 31.6639 23.3477C31.7965 23.7456 31.9102 24.2382 31.9102 24.4087C31.9102 24.7118 31.7207 24.7497 30.4324 24.7497C28.9736 24.7497 28.9736 24.7497 28.6895 24.1245C28.5189 23.7835 28.1779 23.4425 27.8748 23.3288C27.5338 23.2025 27.1865 23.2025 26.8328 23.3288C26.5486 23.4425 26.1887 23.7835 26.0371 24.1245C25.7529 24.7497 25.7529 24.7497 24.2752 24.7497C23.0059 24.7497 22.8164 24.7118 22.8164 24.4087C22.8164 24.2382 22.9301 23.7456 23.0437 23.3288C23.1953 22.8741 23.65 22.1921 24.2373 21.6237C24.7488 21.0932 25.4877 20.5628 25.8477 20.4491C26.2076 20.3354 26.8518 20.2407 27.2686 20.2217ZM69.7061 20.2217C70.1228 20.2028 70.8807 20.3544 71.3922 20.5249C72.0237 20.7522 72.5921 21.1564 73.0973 21.7374C73.533 22.211 73.9877 22.9309 74.1014 23.3477C74.234 23.7456 74.3477 24.2382 74.3477 24.4087C74.3477 24.7118 74.1582 24.7497 72.8699 24.7497C71.4111 24.7497 71.4111 24.7497 71.127 24.1245C70.9564 23.7835 70.6154 23.4425 70.3123 23.3288C69.9713 23.2025 69.624 23.2025 69.2703 23.3288C68.9861 23.4425 68.6262 23.7835 68.4746 24.1245C68.1904 24.7497 68.1904 24.7497 66.7127 24.7497C65.4434 24.7497 65.2539 24.7118 65.2539 24.4087C65.2539 24.2382 65.3676 23.7456 65.4813 23.3288C65.6328 22.8741 66.0875 22.1921 66.6748 21.6237C67.1863 21.0932 67.9252 20.5628 68.2852 20.4491C68.6451 20.3354 69.2893 20.2407 69.7061 20.2217ZM81.8311 20.2217C82.2478 20.2028 83.0057 20.3544 83.5172 20.5249C84.1487 20.7522 84.7171 21.1564 85.2223 21.7374C85.658 22.211 86.1127 22.9309 86.2264 23.3477C86.359 23.7456 86.4727 24.2382 86.4727 24.4087C86.4727 24.7118 86.2832 24.7497 84.9949 24.7497C83.5361 24.7497 83.5361 24.7497 83.252 24.1245C83.0814 23.7835 82.7404 23.4425 82.4373 23.3288C82.0963 23.2025 81.749 23.2025 81.3953 23.3288C81.1111 23.4425 80.7512 23.7835 80.5996 24.1245C80.3154 24.7497 80.3154 24.7497 78.8377 24.7497C77.5684 24.7497 77.3789 24.7118 77.3789 24.4087C77.3789 24.2382 77.4926 23.7456 77.6063 23.3288C77.7578 22.8741 78.2125 22.1921 78.7998 21.6237C79.3113 21.0932 80.0502 20.5628 80.4102 20.4491C80.7701 20.3354 81.4143 20.2407 81.8311 20.2217ZM16.6592 30.8122C17.9664 30.8122 18.118 30.8501 18.5916 31.3616C18.8947 31.6458 19.4631 31.9868 19.8799 32.1194C20.2967 32.2331 20.9408 32.3278 21.3008 32.3278C21.6607 32.3278 22.3049 32.2331 22.7217 32.1194C23.1385 31.9868 23.7258 31.6458 24.01 31.3616C24.5025 30.8501 24.6541 30.8122 25.9613 30.8122C27.1738 30.8122 27.3633 30.8501 27.3633 31.1342C27.3633 31.3237 27.1359 31.93 26.8518 32.4983C26.5297 33.1046 26.0182 33.7487 25.5635 34.0708C25.1467 34.3739 24.2563 34.7907 23.5742 34.9991C22.8922 35.1885 21.8691 35.3591 21.3008 35.3591C20.7324 35.3591 19.7094 35.1885 19.0273 34.9991C18.3453 34.7907 17.4549 34.3739 17.0381 34.0708C16.5834 33.7487 16.0719 33.1046 15.7498 32.4983C15.4656 31.93 15.2383 31.3237 15.2383 31.1342C15.2383 30.8501 15.4277 30.8122 16.6592 30.8122ZM71.2217 30.8122C72.5289 30.8122 72.6805 30.8501 73.1541 31.3616C73.4572 31.6458 74.0256 31.9868 74.4424 32.1194C74.8592 32.2331 75.5033 32.3278 75.8633 32.3278C76.2232 32.3278 76.8674 32.2331 77.2842 32.1194C77.701 31.9868 78.2883 31.6458 78.5725 31.3616C79.065 30.8501 79.2166 30.8122 80.5238 30.8122C81.7363 30.8122 81.9258 30.8501 81.9258 31.1342C81.9258 31.3237 81.6984 31.93 81.4143 32.4983C81.0922 33.1046 80.5807 33.7487 80.126 34.0708C79.7092 34.3739 78.8187 34.7907 78.1367 34.9991C77.4547 35.1885 76.4316 35.3591 75.8633 35.3591C75.2949 35.3591 74.2719 35.1885 73.5898 34.9991C72.9078 34.7907 72.0174 34.3739 71.6006 34.0708C71.1459 33.7487 70.6344 33.1046 70.3123 32.4983C70.0281 31.93 69.8008 31.3237 69.8008 31.1342C69.8008 30.8501 69.9902 30.8122 71.2217 30.8122ZM42.9932 55.7442C43.5047 55.801 44.2436 56.0094 44.6035 56.1989C44.9635 56.3883 45.4939 56.7862 45.7781 57.0893C46.0623 57.3735 46.4602 57.9987 46.6686 58.4723C46.877 58.946 47.0664 59.5143 47.0664 59.7417C47.0664 60.1585 46.9906 60.1774 45.5887 60.1774C44.1678 60.1964 44.1299 60.1774 43.9025 59.6659C43.7699 59.3628 43.391 59.0217 43.05 58.8702C42.5764 58.6807 42.3111 58.6618 41.9512 58.8133C41.6859 58.927 41.3449 59.287 41.1934 59.6091C40.9092 60.1774 40.8902 60.1964 39.4314 60.1774C38.0484 60.1774 37.9727 60.1585 37.9727 59.7417C37.9727 59.5143 38.1621 58.946 38.3705 58.4723C38.5789 57.9987 38.9768 57.3735 39.2609 57.0893C39.5451 56.7862 40.0187 56.4073 40.3408 56.2368C40.6439 56.0852 41.1555 55.8768 41.4775 55.801C41.7807 55.7253 42.4627 55.6874 42.9932 55.7442ZM54.6445 55.6305C55.3645 55.6305 55.9896 55.7632 56.6338 56.0852C57.1453 56.3315 57.8084 56.862 58.0926 57.2219C58.3957 57.6008 58.7557 58.2639 58.9072 58.6997C59.0777 59.1544 59.1914 59.6659 59.1914 59.8364C59.1914 60.1395 58.983 60.1774 57.7137 60.1774C56.2738 60.1964 56.2549 60.1774 55.9707 59.6091C55.8002 59.287 55.4402 58.946 55.1182 58.8133C54.7014 58.6807 54.4172 58.6807 54.0762 58.8133C53.8109 58.927 53.4699 59.287 53.3184 59.6091C53.0342 60.1774 53.0152 60.1964 51.5564 60.1774C50.3061 60.1774 50.0977 60.1395 50.0977 59.8364C50.0977 59.6659 50.2113 59.1544 50.3818 58.6997C50.5334 58.2639 50.8934 57.6008 51.1775 57.2219C51.4807 56.862 52.1248 56.3315 52.6553 56.0852C53.2994 55.7632 53.9246 55.6305 54.6445 55.6305ZM42.4627 66.4294H43.9215C45.2477 66.4294 45.3992 66.4673 45.7781 66.9409C46.0244 67.2061 46.498 67.5471 46.8201 67.6987C47.1611 67.8313 47.9568 67.945 48.582 67.945C49.2072 67.945 50.0029 67.8313 50.325 67.6987C50.666 67.5471 51.1397 67.2061 51.367 66.9409C51.7648 66.4673 51.9164 66.4294 53.2236 66.4294C54.2277 66.4294 54.6445 66.5051 54.6445 66.6567C54.6445 66.7893 54.5687 67.2061 54.4551 67.5661C54.3604 67.926 53.9625 68.6081 53.5646 69.0628C53.1668 69.5174 52.4658 70.0858 51.9922 70.3321C51.5186 70.5594 50.5334 70.8626 49.8135 70.9762C48.7904 71.1467 48.2031 71.1467 47.2559 70.9762C46.5738 70.8626 45.7213 70.5973 45.3613 70.4079C45.0014 70.2374 44.4141 69.8395 44.0541 69.5364C43.7131 69.2333 43.2773 68.7217 43.0879 68.4186C42.8984 68.0965 42.6711 67.5282 42.5953 67.1303L42.4627 66.4294Z" fill="#323032"/>
</svg>
