<svg width="98" height="98" viewBox="0 0 98 98" fill="none" xmlns="http://www.w3.org/2000/svg">
<path fill-rule="evenodd" clip-rule="evenodd" d="M19.7852 3.53125H22.8164V6.5625H25.8477V9.59375H22.8164V12.625H19.7852V9.59375H16.7539V6.5625H19.7852V3.53125ZM80.3154 3.5502C82.0963 3.53125 82.6457 3.60703 84.1045 4.06172C85.0328 4.3459 86.3969 4.91426 87.1357 5.33105C87.9504 5.78574 89.0492 6.63828 89.9965 7.58555C90.9437 8.53281 91.7963 9.6127 92.251 10.4463C92.6678 11.1852 93.1793 12.3977 93.4256 13.1555C93.6719 13.8943 93.9182 15.2584 93.975 16.1678C94.0508 17.1908 94.0129 18.3844 93.8613 19.2559C93.7287 20.0326 93.3877 21.3209 93.0846 22.0977C92.7814 22.8744 92.1752 24.068 91.7205 24.7311C91.2848 25.3941 90.3186 26.5119 89.5797 27.1939C88.7271 28.0086 87.6852 28.7285 86.6432 29.259C85.7717 29.6947 84.5023 30.2062 83.8203 30.3768C82.9488 30.623 81.8879 30.7178 80.2207 30.6988C78.0609 30.6988 77.701 30.642 76.1475 30.0926C75.2191 29.7516 73.9688 29.2021 73.4004 28.8801C72.832 28.5391 71.6764 27.5729 70.8428 26.7393C70.0092 25.9057 69.0051 24.6742 68.6072 23.9922C68.2094 23.3102 67.6789 22.0787 67.3947 21.2451C66.9779 19.9568 66.9021 19.3885 66.8832 17.3613C66.8643 15.6752 66.959 14.6332 67.2053 13.7617C67.3758 13.0797 67.8873 11.8104 68.3231 10.9199C68.9482 9.66953 69.4787 8.94961 70.748 7.68027C71.7332 6.69512 72.832 5.78574 73.5898 5.36895C74.2719 4.99004 75.3707 4.49746 76.0527 4.28906C76.7348 4.08066 77.4926 3.81543 77.7578 3.73965C78.023 3.64492 79.1598 3.56914 80.3154 3.5502ZM78.8945 8.96855C78.9135 9.80215 78.8566 9.89687 78.3072 10.1621C77.9662 10.3137 77.3789 10.7873 77.0189 11.223C76.64 11.6398 76.2232 12.3219 76.1096 12.7387C75.977 13.1365 75.8633 13.7807 75.8633 14.1406C75.8633 14.5006 75.977 15.1447 76.0906 15.5615C76.2422 16.0162 76.6969 16.6982 77.2842 17.2666C77.8525 17.8539 78.5346 18.3086 78.9893 18.4602C79.4061 18.5738 80.0312 18.6875 80.3723 18.6875C80.7701 18.6875 81.149 18.858 81.4521 19.1611C81.7553 19.4643 81.9258 19.8432 81.9258 20.2031C81.9258 20.5441 81.7553 20.9609 81.4521 21.2451C81.168 21.5482 80.7891 21.7188 80.4102 21.7188C80.0502 21.7188 79.6713 21.5482 79.3682 21.2451C79.1029 20.9799 78.8945 20.6389 78.8945 20.4873C78.8945 20.26 78.5914 20.2031 77.3789 20.2031C76.0527 20.2031 75.8633 20.241 75.8633 20.5252C75.8633 20.7146 75.977 21.2072 76.1096 21.6051C76.2232 22.0219 76.64 22.7039 77.0189 23.1207C77.3789 23.5564 77.9662 24.0301 78.3072 24.1816C78.8566 24.4469 78.9135 24.5416 78.8945 25.3562V26.2656H81.9258C81.9068 24.5416 81.9637 24.4469 82.5131 24.1816C82.8541 24.0301 83.4414 23.5564 83.8014 23.1207C84.1803 22.7039 84.5971 22.0219 84.7107 21.6051C84.8434 21.2072 84.957 20.5631 84.957 20.2031C84.957 19.8432 84.8434 19.199 84.7297 18.7822C84.5781 18.3275 84.1234 17.6455 83.5361 17.0771C82.9678 16.4898 82.2857 16.0352 81.8311 15.8836C81.4143 15.7699 80.7891 15.6562 80.467 15.6562C80.0502 15.6562 79.6713 15.4857 79.3682 15.1826C79.065 14.8795 78.8945 14.5006 78.8945 14.1406C78.8945 13.7996 79.065 13.3828 79.3682 13.0986C79.6523 12.7955 80.0312 12.625 80.4102 12.625C80.7701 12.625 81.149 12.7955 81.4521 13.0986C81.7174 13.3639 81.9258 13.7049 81.9258 13.8564C81.9258 14.0838 82.2289 14.1406 83.4414 14.1406C84.7676 14.1406 84.957 14.1027 84.957 13.7996C84.957 13.6291 84.8434 13.1365 84.7107 12.7387C84.5971 12.3219 84.1803 11.6398 83.8014 11.223C83.4414 10.7873 82.8541 10.3137 82.5131 10.1621C81.9637 9.89687 81.9068 9.80215 81.9258 8.96855V8.07812H78.8945V8.96855ZM27.2686 36.8939C32.7248 36.875 34.2973 36.9318 35.1309 37.1592C35.6992 37.3107 36.5896 37.6328 37.1201 37.898C37.6316 38.1443 38.6168 38.8264 39.2988 39.3758C39.9619 39.9252 40.966 40.9861 41.5344 41.7061C42.0838 42.426 42.9932 43.9605 43.5615 45.0973C44.1109 46.2529 44.774 47.9201 45.0203 48.7916C45.3992 50.2504 45.4561 50.8187 45.4561 54.6646C45.4561 58.6621 45.4182 58.9842 45.0393 59.6852C44.8309 60.102 44.3572 60.7082 43.9973 61.0303C43.6562 61.3523 43.1637 61.6744 42.9363 61.7502C42.5195 61.8639 42.5195 61.9397 42.5006 64.6678C42.5006 66.2023 42.4059 67.8506 42.3111 68.3053C42.1975 68.7789 41.8943 69.5936 41.6291 70.1051C41.3828 70.6355 40.7576 71.4691 40.265 71.9617C39.6398 72.5869 39.4693 72.8711 39.6777 72.9279C39.8293 72.9658 40.4734 73.1553 41.0986 73.3258C41.7238 73.5152 42.9174 74.0078 43.751 74.4436C44.9066 75.0498 45.6834 75.6561 47.0664 77.0201C48.1273 78.0811 49.1504 79.3314 49.5861 80.0514C49.965 80.7334 50.5523 82.0975 51.4807 84.8824L51.6133 94.4498H41.0039V88.1979H37.9727V94.4498H34.9414C31.9291 94.4498 31.9102 94.4498 31.8912 94.033C31.8912 93.8057 31.7396 91.5701 31.5502 89.0883C31.3797 86.6064 31.285 84.5414 31.3418 84.5035C31.3797 84.4467 31.967 84.9393 32.6111 85.5645C33.2932 86.2086 33.9752 86.6822 34.1836 86.6822C34.4109 86.6822 34.8277 86.4549 35.1119 86.1707C35.5287 85.735 35.6803 85.3182 35.9645 83.7457C36.1539 82.7037 36.6275 80.1082 37.0254 77.9674C37.4232 75.8455 37.7074 74.0457 37.6695 73.9889C37.6127 73.951 36.9307 74.1973 36.116 74.5383C35.3014 74.8793 34.6004 75.2203 34.5246 75.2961C34.4488 75.3719 34.1646 76.698 33.8994 78.2516C33.6152 79.824 33.3311 81.2639 33.2742 81.4344C33.1605 81.7186 32.7438 81.3775 28.9357 77.3043H25.8098L21.5281 81.8512L21.3197 80.8092C21.2061 80.2408 20.9219 78.7631 20.2588 75.2393L18.7811 74.6141C17.9664 74.273 17.2465 74.0268 17.1518 74.0457C17.076 74.0647 17.4928 76.7359 18.0801 79.9566C19.0842 85.4318 19.1979 85.8676 19.6525 86.2654C19.9367 86.4928 20.3346 86.6822 20.543 86.6822C20.7514 86.6822 21.4523 86.1897 22.0965 85.5645C22.7406 84.9393 23.3279 84.4467 23.3848 84.5035C23.4227 84.5414 23.3658 86.0949 23.2521 87.9516C23.1195 89.8082 22.968 92.0437 22.8164 94.4498L16.7539 94.4688V88.2168H13.7227V94.4688H3.11328L3.17012 89.6756C3.22695 85.4318 3.28379 84.7498 3.64375 83.5563C3.87109 82.8363 4.25 81.8133 4.49629 81.2828C4.74258 80.7713 5.27305 79.843 5.70879 79.1988C6.12559 78.5736 6.97812 77.5695 7.58437 76.9822C8.19062 76.376 9.08105 75.6182 9.55469 75.2961C10.0094 74.974 10.8619 74.4814 11.4492 74.1973C12.0176 73.8941 13.0027 73.5152 13.6279 73.3258C14.2531 73.1553 14.8783 72.9658 15.0488 72.9279C15.2383 72.89 15.0678 72.6059 14.4236 71.9617C13.9311 71.4691 13.3248 70.6355 13.0596 70.1051C12.8133 69.5936 12.5102 68.7789 12.4154 68.3053C12.3018 67.8506 12.207 66.2213 12.207 61.9586L11.7334 61.7313C11.4682 61.5986 10.9756 61.2576 10.6346 60.9545C10.2936 60.6514 9.81992 59.9504 9.57363 59.401C9.13789 58.3969 9.11895 58.2643 9.21367 54.2857C9.28945 50.8945 9.36523 49.9852 9.70625 48.7537C9.93359 47.9391 10.3883 46.6697 10.7104 45.9119C11.0514 45.1541 11.6955 43.9416 12.1691 43.2027C12.6238 42.4828 13.3627 41.4598 13.7984 40.9293C14.2342 40.4178 15.1436 39.5652 15.8066 39.0727C16.4887 38.5611 17.417 37.9738 17.8906 37.7465C18.3453 37.5381 19.1221 37.2729 19.5957 37.1402C20.183 36.9697 22.4375 36.8939 27.2686 36.8939ZM25.5824 49.2273C25.8287 50.1557 25.8477 50.5346 25.6771 50.9893C25.5635 51.2924 25.2604 51.6523 24.9951 51.785C24.6541 51.9555 23.4227 52.0312 20.9598 52.0312C17.9475 52.0312 17.3033 52.0691 16.7539 52.3533C16.3939 52.5428 15.9582 52.9027 15.7688 53.168C15.5793 53.4143 15.3709 53.9826 15.3141 54.3994C15.2572 54.7973 15.1057 55.3467 14.973 55.574C14.8594 55.8014 14.5562 56.0855 14.3289 56.1803C14.1016 56.2939 13.6848 56.3887 13.4385 56.3887C13.1732 56.3887 12.7943 56.5402 12.5859 56.7676C12.3586 56.976 12.207 57.3928 12.207 57.7148C12.207 58.018 12.3586 58.4348 12.5859 58.6621C12.7943 58.8705 13.1732 59.041 13.4385 59.041C13.6848 59.041 14.1205 59.1357 14.3857 59.2684C14.651 59.401 14.9162 59.6283 14.992 59.7988C15.0678 59.9504 15.1814 61.826 15.2193 63.9668C15.3141 67.3201 15.3709 67.9453 15.693 68.6084C15.9014 69.0062 16.375 69.6504 16.7539 70.0293C17.2465 70.5029 18.3832 71.0902 21.1113 72.2459C23.5174 73.269 25.2604 73.8941 26.1318 74.0457C27.1359 74.2162 27.7422 74.2162 28.6895 74.0457C29.3904 73.9131 31.4555 73.1742 33.6152 72.2459C36.3244 71.0902 37.4801 70.5029 37.9727 70.0293C38.3326 69.6504 38.8063 69.0062 39.0146 68.6084C39.3367 67.9453 39.3936 67.3201 39.4883 63.9668C39.5451 61.826 39.6398 59.9504 39.7156 59.7988C39.7914 59.6283 40.0566 59.401 40.3219 59.2684C40.5871 59.1357 41.0229 59.041 41.2881 59.041C41.5344 59.041 41.9322 58.8705 42.1406 58.6621C42.349 58.4348 42.5195 58.018 42.5195 57.7148C42.5195 57.3928 42.349 56.976 42.1406 56.7676C41.9322 56.5402 41.5344 56.3887 41.2881 56.3887C41.0229 56.3887 40.6061 56.2939 40.3787 56.1803C40.1514 56.0855 39.8482 55.8014 39.7346 55.574C39.602 55.3467 39.4693 54.7973 39.4125 54.3994C39.3367 53.9826 39.1473 53.4143 38.9578 53.168C38.7494 52.9027 38.3137 52.5428 37.9537 52.3533C37.518 52.126 36.8738 52.0312 35.9834 52.0312C34.6762 52.0312 34.5625 51.9934 30.0535 49.8525C27.5338 48.64 25.4119 47.6738 25.374 47.6738C25.3172 47.6738 25.2793 47.7496 25.2793 47.8633C25.2793 47.958 25.4119 48.5832 25.5824 49.2273ZM77.9473 56.5781H82.873V59.4199L83.6688 59.5904C84.1045 59.6852 84.9002 59.9883 86.3779 60.7271L88.2725 58.8516L91.7773 62.3564L89.8639 64.251L90.3186 65.1982C90.5838 65.7098 90.9059 66.5055 91.3037 67.7559H94.0508V72.6816L91.3037 72.6627L91.0385 73.4773C90.9059 73.9131 90.5838 74.7088 89.8639 76.1865L91.7584 78.0811L88.2725 81.567L86.3779 79.6535L85.4307 80.1461C84.9002 80.4303 84.1045 80.7334 82.873 81.0176V83.8594H77.9473V81.1123L77.1326 80.8471C76.6969 80.7145 75.9012 80.3924 74.4424 79.6725L72.5479 81.567L69.043 78.0811L70.9375 76.1865L70.3881 75.0498C70.085 74.4057 69.7818 73.6289 69.6113 72.6816H66.7695V67.7559H69.6113L69.725 67.1307C69.7818 66.7896 70.085 66.0129 70.9375 64.251L69.043 62.3564L72.5479 58.8516L74.4424 60.7461L75.3896 60.2914C75.9012 60.0262 76.6969 59.7041 77.9473 59.3252V56.5781ZM76.8674 65.3119C76.4127 65.615 75.8064 66.2213 75.5033 66.657C75.2002 67.0928 74.8023 67.9264 74.6318 68.5137C74.3855 69.2336 74.3287 69.8777 74.3856 70.6924C74.4424 71.3176 74.6887 72.2459 74.935 72.7764C75.1813 73.2879 75.7307 74.0647 76.1475 74.4814C76.5643 74.8982 77.341 75.4477 77.8525 75.7129C78.6482 76.0918 79.084 76.1676 80.4102 76.1676C81.7553 76.1676 82.1721 76.0728 82.9678 75.675C83.4982 75.4098 84.1803 74.974 84.4834 74.7088C84.8055 74.4625 85.3549 73.7047 85.7148 73.0227C86.3211 71.9238 86.3779 71.6775 86.3779 70.2188C86.3779 68.8736 86.2832 68.4379 85.9043 67.6611C85.658 67.1307 85.0896 66.3539 84.6729 65.9371C84.2561 65.5203 83.4982 64.9709 82.9678 64.7246C82.3426 64.4215 81.5848 64.251 80.6943 64.2131C79.785 64.1562 79.1029 64.232 78.5156 64.4594C78.042 64.6299 77.3031 65.0088 76.8674 65.3119ZM47.0664 9.59375H50.0977V10.4842C50.0787 11.3178 50.1355 11.4125 50.685 11.6777C51.026 11.8293 51.6133 12.3029 51.9732 12.7197C52.3521 13.1555 52.7689 13.8375 52.8826 14.2354C53.0152 14.6521 53.1289 15.1258 53.1289 15.3152C53.1289 15.5994 52.9395 15.6562 51.6133 15.6562C50.4008 15.6562 50.0977 15.5994 50.0977 15.3721C50.0977 15.2016 49.8893 14.8605 49.624 14.6143C49.3209 14.3111 48.942 14.1406 48.582 14.1406C48.2031 14.1406 47.8242 14.3111 47.54 14.6143C47.2559 14.8984 47.0664 15.2963 47.0664 15.6562C47.0664 15.9973 47.2559 16.3951 47.54 16.6982C47.8432 17.0014 48.2221 17.1719 48.6389 17.1719C48.9609 17.1719 49.5861 17.2666 50.0029 17.3992C50.4766 17.5318 51.1396 17.9865 51.708 18.5738C52.2953 19.1611 52.75 19.8242 52.9016 20.2979C53.0152 20.7146 53.1289 21.3398 53.1289 21.7188C53.1289 22.0787 53.0152 22.7039 52.8826 23.1207C52.7689 23.5186 52.3521 24.2006 51.9732 24.6363C51.6133 25.0531 51.026 25.5268 50.685 25.6973C50.1355 25.9436 50.0787 26.0383 50.0977 27.7812H47.0664V26.8719C47.0854 26.0383 47.0285 25.9436 46.4791 25.6973C46.1381 25.5268 45.5697 25.0531 45.1908 24.6363C44.8119 24.2006 44.4141 23.5186 44.2814 23.1207C44.1488 22.7039 44.0352 22.2303 44.0352 22.0408C44.0352 21.7566 44.2246 21.7188 45.5508 21.7188C46.7822 21.7188 47.0664 21.7566 47.0664 22.0029C47.0664 22.1545 47.2748 22.4955 47.54 22.7607C47.8432 23.0449 48.2221 23.2344 48.601 23.2344C48.9609 23.2154 49.3398 23.0449 49.643 22.7607C49.9272 22.4576 50.0977 22.0598 50.0977 21.7188C50.0977 21.3588 49.9271 20.9609 49.624 20.6768C49.3209 20.3547 48.942 20.1842 48.5441 20.1842C48.2031 20.1842 47.5779 20.0895 47.1611 19.9568C46.7064 19.8242 46.0434 19.3695 45.4561 18.7822C44.8688 18.1949 44.4141 17.5318 44.2625 17.0771C44.1488 16.6604 44.0352 16.0162 44.0352 15.6562C44.0352 15.2773 44.1488 14.6521 44.2814 14.2354C44.4141 13.8375 44.8119 13.1555 45.1908 12.7197C45.5697 12.3029 46.1381 11.8293 46.4791 11.6777C47.0285 11.4125 47.0854 11.3178 47.0664 10.4842V9.59375ZM30.3945 14.1406H33.4258V18.6875H37.9727V21.7188H33.4258V26.2656H30.3945V21.7188H25.8477V18.6875H30.3945V14.1406ZM7.66016 18.6875H10.6914V21.7188H13.7227V24.75H10.6914V27.7812H7.66016V24.75H4.62891V21.7188H7.66016V18.6875ZM80.4102 38.3906C80.7701 38.3906 81.168 38.5611 81.4521 38.8643C81.7553 39.1674 81.9258 39.5463 81.9258 39.9062C81.9258 40.2473 81.7553 40.6641 81.4711 40.9482C81.168 41.2514 80.7891 41.4219 80.4291 41.4219C80.0691 41.4219 79.6713 41.2514 79.3682 40.9482C79.065 40.6451 78.9135 40.2662 78.9135 39.9062C78.9135 39.5463 79.1029 39.1295 79.3682 38.8643C79.6713 38.5611 80.0502 38.3906 80.4102 38.3906ZM80.4102 44.4531C80.7701 44.4531 81.168 44.6236 81.4521 44.9268C81.7553 45.2299 81.9258 45.6088 81.9258 45.9688C81.9258 46.3098 81.7553 46.7266 81.4711 47.0107C81.168 47.3139 80.7891 47.4844 80.4291 47.4844C80.0691 47.4844 79.6713 47.3139 79.3682 47.0107C79.065 46.7076 78.9135 46.3287 78.9135 45.9688C78.9135 45.6088 79.1029 45.192 79.3682 44.9268C79.6713 44.6236 80.0502 44.4531 80.4102 44.4531ZM80.4102 50.5156C80.7701 50.5156 81.168 50.6861 81.4521 50.9893C81.7553 51.2924 81.9258 51.6713 81.9258 52.0312C81.9258 52.3723 81.7553 52.7891 81.4711 53.0732C81.168 53.3764 80.7891 53.5469 80.4291 53.5469C80.0691 53.5469 79.6713 53.3764 79.3682 53.0732C79.065 52.7701 78.9135 52.3912 78.9135 52.0312C78.9135 51.6713 79.1029 51.2545 79.3682 50.9893C79.6713 50.6861 80.0502 50.5156 80.4102 50.5156ZM50.0977 68.7031C50.4576 68.7031 50.8555 68.8736 51.1396 69.1768C51.4428 69.4799 51.6133 69.8588 51.6133 70.2188C51.6133 70.5598 51.4428 70.9766 51.1586 71.2607C50.8555 71.5639 50.4766 71.7344 50.1166 71.7344C49.7566 71.7344 49.3588 71.5639 49.0557 71.2607C48.7525 70.9576 48.601 70.5787 48.601 70.2188C48.601 69.8588 48.7904 69.442 49.0557 69.1768C49.3588 68.8736 49.7377 68.7031 50.0977 68.7031ZM56.1602 68.7031C56.5201 68.7031 56.918 68.8736 57.2021 69.1768C57.5053 69.4799 57.6758 69.8588 57.6758 70.2188C57.6758 70.5598 57.5053 70.9766 57.2211 71.2607C56.918 71.5639 56.5391 71.7344 56.1791 71.7344C55.8191 71.7344 55.4213 71.5639 55.1182 71.2607C54.815 70.9576 54.6635 70.5787 54.6635 70.2188C54.6635 69.8588 54.8529 69.442 55.1182 69.1768C55.4213 68.8736 55.8002 68.7031 56.1602 68.7031ZM62.2227 68.7031C62.5826 68.7031 62.9805 68.8736 63.2646 69.1768C63.5678 69.4799 63.7383 69.8588 63.7383 70.2188C63.7383 70.5598 63.5678 70.9766 63.2836 71.2607C62.9805 71.5639 62.6016 71.7344 62.2416 71.7344C61.8816 71.7344 61.4838 71.5639 61.1807 71.2607C60.8775 70.9576 60.726 70.5787 60.726 70.2188C60.726 69.8588 60.9154 69.442 61.1807 69.1768C61.4838 68.8736 61.8627 68.7031 62.2227 68.7031ZM27.3443 80.2598C27.4201 80.2408 27.5717 80.3545 27.6854 80.4871C27.8369 80.6387 28.0643 82.7984 28.3105 86.1896C28.5189 89.183 28.6895 91.9301 28.6895 92.9531H26.0371V92.3469C26.0371 92.0059 26.2266 89.2588 26.435 86.2465C26.6434 83.2152 26.9086 80.6387 27.0223 80.5061C27.1359 80.3734 27.2875 80.2598 27.3443 80.2598ZM21.7744 55.7445C22.3049 55.8014 23.0248 56.0098 23.3848 56.1992C23.7637 56.3887 24.2941 56.7865 24.5594 57.0896C24.8436 57.3738 25.2414 57.999 25.4688 58.4727C25.6771 58.9463 25.8477 59.5146 25.8477 59.7609C25.8477 60.1588 25.7908 60.1777 24.3889 60.1777C22.9111 60.1777 22.9111 60.1777 22.627 59.5525C22.4754 59.2115 22.1344 58.8705 21.8313 58.7568C21.4776 58.6305 21.1303 58.6305 20.7893 58.7568C20.4861 58.8705 20.1451 59.2115 19.9746 59.5525C19.6904 60.1777 19.6904 60.1777 18.2316 60.1777C16.8297 60.1777 16.7539 60.1588 16.7729 59.7609C16.7729 59.5146 16.9434 58.9463 17.1518 58.4727C17.3602 57.999 17.777 57.3738 18.0611 57.0896C18.3264 56.7865 18.8189 56.4076 19.1221 56.2371C19.4441 56.0855 19.9557 55.8771 20.2588 55.8014C20.5809 55.7256 21.2629 55.6877 21.7744 55.7445ZM33.8994 55.7445C34.4299 55.8014 35.1498 56.0098 35.5098 56.1992C35.8887 56.3887 36.4191 56.7865 36.6844 57.0896C36.9686 57.3738 37.3664 57.999 37.5938 58.4727C37.8021 58.9463 37.9727 59.5146 37.9727 59.7609C37.9727 60.1588 37.9158 60.1777 36.5139 60.1777C35.0361 60.1777 35.0361 60.1777 34.752 59.5525C34.6004 59.2115 34.2594 58.8705 33.9563 58.7568C33.6026 58.6305 33.2553 58.6305 32.9143 58.7568C32.6111 58.8705 32.2701 59.2115 32.0996 59.5525C31.8154 60.1777 31.8154 60.1777 30.3566 60.1777C28.9547 60.1777 28.8789 60.1588 28.8979 59.7609C28.8979 59.5146 29.0684 58.9463 29.2768 58.4727C29.4852 57.999 29.902 57.3738 30.1861 57.0896C30.4514 56.7865 30.9439 56.4076 31.2471 56.2371C31.5691 56.0855 32.0807 55.8771 32.3838 55.8014C32.7059 55.7256 33.3879 55.6877 33.8994 55.7445ZM21.2629 66.4297H22.7027C24.0479 66.4297 24.1805 66.4676 24.5783 66.9412C24.8057 67.2064 25.2793 67.5475 25.6203 67.699C25.9613 67.8316 26.7381 67.9453 27.3633 67.9453C27.9885 67.9453 28.7842 67.8316 29.1252 67.699C29.4662 67.5475 29.9398 67.2064 30.1672 66.9412C30.565 66.4676 30.6977 66.4297 32.0049 66.4297C33.0279 66.4297 33.4258 66.5055 33.4258 66.676C33.4258 66.7896 33.35 67.2064 33.2553 67.5664C33.1605 67.9264 32.7437 68.6084 32.3459 69.0631C31.967 69.5178 31.2471 70.0861 30.7734 70.3324C30.3188 70.5598 29.3336 70.8629 28.5947 70.9766C27.5717 71.1471 27.0033 71.1471 26.0371 70.9766C25.374 70.8629 24.5215 70.5977 24.1426 70.4082C23.7826 70.2377 23.1953 69.8398 22.8543 69.5367C22.4943 69.2336 22.0586 68.741 21.8691 68.4189C21.6797 68.1158 21.4713 67.5285 21.3955 67.1496L21.2629 66.4297ZM80.3723 67.1875C80.7133 67.1875 81.2627 67.2822 81.6037 67.4338C81.9447 67.5664 82.4562 67.9453 82.7404 68.2863C83.0246 68.6084 83.3088 69.1957 83.3846 69.5936C83.4414 69.9914 83.4414 70.5977 83.3656 70.9766C83.2898 71.3555 82.9299 71.9238 82.532 72.3217C82.0773 72.7764 81.5974 73.0542 81.0922 73.1553C80.6754 73.2121 80.0312 73.2121 79.6713 73.1553C79.2734 73.0605 78.7051 72.7195 78.3072 72.3217C77.8525 71.8544 77.581 71.3744 77.4926 70.8818C77.4168 70.465 77.3979 69.8398 77.4736 69.4988C77.5305 69.1578 77.7768 68.6084 78.023 68.2863C78.2693 67.9643 78.7619 67.5854 79.1219 67.4527C79.4629 67.3012 80.0312 67.1875 80.3723 67.1875Z" fill="#323032"/>
</svg>
