<svg width="23" height="25" viewBox="0 0 23 25" fill="none" xmlns="http://www.w3.org/2000/svg">
<path d="M21.957 24.2986C21.8709 24.4555 21.7443 24.5863 21.5904 24.6776C21.4365 24.7688 21.2609 24.8171 21.082 24.8174H15.082C14.9137 24.8173 14.7482 24.7748 14.6007 24.6937C14.4532 24.6127 14.3285 24.4957 14.2383 24.3536L9.17703 16.3999L1.82203 24.4899C1.64273 24.6825 1.39475 24.7967 1.13184 24.8076C0.868927 24.8186 0.612282 24.7255 0.417544 24.5486C0.222807 24.3716 0.105673 24.125 0.091537 23.8622C0.077401 23.5995 0.167403 23.3417 0.34203 23.1449L8.06328 14.6449L0.238279 2.35488C0.141906 2.20369 0.087957 2.02936 0.0820804 1.85016C0.0762037 1.67096 0.118616 1.49347 0.204876 1.33629C0.291136 1.1791 0.418071 1.048 0.572389 0.956708C0.726707 0.865417 0.902731 0.817296 1.08203 0.817383H7.08203C7.25033 0.817435 7.4159 0.859964 7.56339 0.94103C7.71088 1.0221 7.83553 1.13908 7.92578 1.28113L12.987 9.23488L20.342 1.14488C20.5213 0.952281 20.7693 0.838112 21.0322 0.827128C21.2951 0.816143 21.5518 0.909229 21.7465 1.0862C21.9412 1.26318 22.0584 1.50978 22.0725 1.77254C22.0867 2.0353 21.9967 2.29304 21.822 2.48988L14.1008 10.9836L21.9258 23.2811C22.0216 23.4324 22.0751 23.6066 22.0806 23.7856C22.0861 23.9646 22.0434 24.1418 21.957 24.2986Z" fill="black"/>
</svg>
