<svg width="27" height="27" viewBox="0 0 27 27" fill="none" xmlns="http://www.w3.org/2000/svg">
<path d="M26.082 13.8174C26.0779 16.9946 24.9121 20.0607 22.8043 22.4382C20.6965 24.8156 17.7921 26.3402 14.6382 26.7248C14.568 26.7328 14.4969 26.7258 14.4296 26.7042C14.3623 26.6827 14.3003 26.6471 14.2477 26.5999C14.1952 26.5526 14.1532 26.4948 14.1246 26.4301C14.0961 26.3655 14.0815 26.2955 14.082 26.2248V16.8174H17.082C17.2191 16.8177 17.3547 16.7898 17.4806 16.7354C17.6065 16.6811 17.7198 16.6014 17.8136 16.5014C17.9074 16.4014 17.9796 16.2832 18.0257 16.1542C18.0719 16.0251 18.0911 15.8879 18.082 15.7511C18.0599 15.494 17.9412 15.2547 17.7499 15.0815C17.5586 14.9082 17.3088 14.8139 17.0507 14.8174H14.082V11.8174C14.082 11.2869 14.2927 10.7782 14.6678 10.4031C15.0428 10.0281 15.5515 9.81735 16.082 9.81735H18.082C18.2191 9.81765 18.3547 9.78976 18.4806 9.73542C18.6065 9.68107 18.7198 9.60143 18.8136 9.50144C18.9074 9.40144 18.9796 9.28324 19.0257 9.15416C19.0719 9.02508 19.0911 8.88789 19.082 8.7511C19.0599 8.49352 18.9409 8.25391 18.749 8.08061C18.5572 7.90732 18.3067 7.81324 18.0482 7.81735H16.082C15.0211 7.81735 14.0037 8.23878 13.2535 8.98892C12.5034 9.73907 12.082 10.7565 12.082 11.8174V14.8174H9.08197C8.94489 14.817 8.8092 14.8449 8.68335 14.8993C8.55749 14.9536 8.44415 15.0333 8.35037 15.1333C8.25659 15.2333 8.18437 15.3515 8.1382 15.4805C8.09203 15.6096 8.07289 15.7468 8.08197 15.8836C8.10409 16.1412 8.22308 16.3808 8.41493 16.5541C8.60679 16.7274 8.85722 16.8215 9.11572 16.8174H12.082V26.2274C12.0824 26.2979 12.0679 26.3678 12.0394 26.4323C12.0109 26.4969 11.9691 26.5546 11.9167 26.6019C11.8642 26.6491 11.8024 26.6847 11.7352 26.7063C11.6681 26.7279 11.5971 26.7351 11.527 26.7274C8.28867 26.333 5.31643 24.7372 3.19857 22.2559C1.0807 19.7746 -0.0284206 16.5887 0.0907245 13.3286C0.340724 6.5786 5.80822 1.0911 12.5632 0.828601C14.3121 0.760859 16.0566 1.04654 17.6926 1.66856C19.3285 2.29057 20.8221 3.23615 22.0842 4.44872C23.3462 5.66129 24.3507 7.11595 25.0377 8.72569C25.7246 10.3354 26.0798 12.0672 26.082 13.8174Z" fill="black"/>
</svg>
