<svg width="194" height="91" viewBox="0 0 194 91" fill="none" xmlns="http://www.w3.org/2000/svg">
<rect x="8.62866" width="186.329" height="67.9249" rx="16" transform="rotate(7.22792 8.62866 0)" fill="white"/>
<g clip-path="url(#clip0_246_138)">
<path d="M28.1033 25.3717L26.055 41.5223L23.5451 41.204L25.0924 29.0037L22.0341 28.638L22.2251 27.1321L22.7683 27.0457C23.6144 26.9017 24.3043 26.7083 24.8377 26.4655C25.3857 26.2245 25.9194 25.8635 26.4387 25.3823L26.6628 25.189L28.1033 25.3717ZM35.508 42.9429C34.4749 42.8119 33.6276 42.5566 32.9661 42.177C32.321 41.7847 31.8088 41.3354 31.4295 40.829C31.0666 40.3099 30.7992 39.7955 30.6273 39.2858C30.47 38.778 30.3716 38.3294 30.3323 37.94C30.3075 37.5524 30.3034 37.2932 30.32 37.1623L32.699 37.464C32.699 37.464 32.7006 37.5677 32.7039 37.7751C32.7235 37.9697 32.7659 38.219 32.8308 38.523C32.9103 38.8287 33.0553 39.1428 33.2657 39.4652C33.478 39.773 33.7822 40.0555 34.1783 40.3127C34.5763 40.5554 35.1026 40.7182 35.7574 40.8013C36.5431 40.9009 37.2118 40.8157 37.7635 40.5457C38.3298 40.2774 38.7698 39.8971 39.0836 39.4047C39.4119 38.9141 39.613 38.3778 39.6868 37.7958C39.7606 37.2138 39.7007 36.637 39.5071 36.0654C39.3298 35.4811 39.0078 34.9894 38.541 34.5902C38.076 34.1764 37.4725 33.9224 36.7305 33.8283C36.1484 33.7545 35.649 33.7872 35.2322 33.9266C34.8299 34.0677 34.4967 34.2472 34.2325 34.4651C33.9847 34.6702 33.7979 34.8609 33.6721 35.0371C33.5608 35.2152 33.5051 35.3042 33.5051 35.3042L30.9952 34.9859L33.4808 26.0537L42.4291 27.1885L42.144 29.4365L35.0072 28.5314L33.8508 32.7535L33.9163 32.7618C34.0657 32.6329 34.2843 32.4832 34.572 32.3127C34.8616 32.1277 35.2348 31.9828 35.6916 31.8781C36.1648 31.7607 36.7506 31.7463 37.449 31.8349C38.6275 31.9843 39.5828 32.379 40.3148 33.0188C41.0632 33.646 41.5866 34.4146 41.8851 35.3247C42.2001 36.2222 42.2985 37.1365 42.1804 38.0677C42.0918 38.7661 41.8814 39.4343 41.5492 40.0722C41.2169 40.7101 40.7693 41.2669 40.2063 41.7425C39.6579 42.22 38.9851 42.5708 38.1879 42.7949C37.4052 43.0209 36.5119 43.0702 35.508 42.9429ZM50.3299 44.8005C49.2968 44.6695 48.4078 44.335 47.6629 43.797C46.9326 43.2609 46.3471 42.5731 45.9066 41.7336C45.466 40.8942 45.1703 39.9622 45.0193 38.9378C44.8702 37.8988 44.8666 36.8191 45.0087 35.6987C45.1508 34.5784 45.4228 33.541 45.8248 32.5867C46.2285 31.6178 46.7485 30.7819 47.3847 30.079C48.0208 29.3761 48.7594 28.8562 49.6005 28.5194C50.4561 28.1844 51.4005 28.0824 52.4335 28.2134C53.4666 28.3444 54.3483 28.678 55.0786 29.2141C55.8235 29.7521 56.4162 30.4409 56.8568 31.2803C57.2974 32.1197 57.5922 33.0589 57.7413 34.098C57.8923 35.1224 57.8967 36.1948 57.7546 37.3152C57.6125 38.4356 57.3396 39.4802 56.9358 40.4491C56.5339 41.4034 56.0149 42.232 55.3787 42.9349C54.7425 43.6378 53.9967 44.1568 53.141 44.4918C52.3 44.8286 51.3629 44.9315 50.3299 44.8005ZM50.6205 42.5089C51.6972 42.6454 52.6557 42.2569 53.496 41.3434C54.3381 40.4153 54.8847 38.9619 55.1356 36.983C55.3847 35.0188 55.2165 33.4895 54.6308 32.3951C54.0452 31.3007 53.2141 30.6852 52.1373 30.5487C51.0606 30.4121 50.1021 30.8006 49.2619 31.7142C48.4216 32.6277 47.8769 34.0666 47.6278 36.0309C47.3786 37.9951 47.5387 39.5308 48.1079 40.6379C48.6917 41.7468 49.5292 42.3705 50.6205 42.5089ZM63.9232 43.6859L64.3301 40.4776L61.0999 40.068L61.3574 38.0382L64.5875 38.4479L64.9971 35.2178L67.0269 35.4752L66.6172 38.7053L69.8255 39.1122L69.5681 41.1419L66.3598 40.7351L65.9529 43.9434L63.9232 43.6859Z" fill="#24C00B"/>
</g>
<path d="M23.7174 44.9794C23.8836 44.7134 24.2851 44.7643 24.3796 45.0634L25.0843 47.2943C25.1228 47.4162 25.2219 47.5093 25.3459 47.5402L27.6161 48.1059C27.9204 48.1817 27.996 48.5793 27.7408 48.7615L25.8369 50.1212C25.7328 50.1955 25.6749 50.3185 25.6838 50.446L25.8474 52.7798C25.8693 53.0927 25.5145 53.2875 25.2623 53.1011L23.3809 51.7105C23.2781 51.6345 23.1432 51.6174 23.0247 51.6653L20.8556 52.542C20.5648 52.6595 20.2699 52.3823 20.3693 52.0849L21.1104 49.8658C21.1509 49.7445 21.1255 49.611 21.0433 49.5131L19.5392 47.7211C19.3376 47.4809 19.5101 47.1147 19.8237 47.1173L22.1632 47.1364C22.291 47.1375 22.4102 47.072 22.4779 46.9636L23.7174 44.9794Z" fill="#F2D300"/>
<path d="M34.5753 46.3568C34.7415 46.0908 35.143 46.1418 35.2375 46.4408L35.9422 48.6717C35.9807 48.7936 36.0798 48.8867 36.2038 48.9176L38.474 49.4833C38.7783 49.5591 38.8539 49.9567 38.5987 50.139L36.6948 51.4986C36.5908 51.5729 36.5328 51.6959 36.5417 51.8234L36.7053 54.1573C36.7272 54.4701 36.3724 54.6649 36.1202 54.4785L34.2388 53.0879C34.136 53.0119 34.0011 52.9948 33.8826 53.0427L31.7135 53.9195C31.4227 54.037 31.1278 53.7598 31.2272 53.4623L31.9683 51.2432C32.0088 51.122 31.9834 50.9884 31.9012 50.8905L30.3971 49.0985C30.1955 48.8583 30.368 48.4922 30.6816 48.4947L33.0211 48.5139C33.1489 48.5149 33.2681 48.4495 33.3358 48.3411L34.5753 46.3568Z" fill="#F2D300"/>
<path d="M45.4332 47.7343C45.5994 47.4683 46.0009 47.5192 46.0954 47.8183L46.8001 50.0492C46.8386 50.171 46.9377 50.2642 47.0617 50.2951L49.3319 50.8607C49.6362 50.9366 49.7118 51.3342 49.4566 51.5164L47.5527 52.8761C47.4487 52.9504 47.3907 53.0734 47.3997 53.2009L47.5632 55.5347C47.5851 55.8476 47.2303 56.0424 46.9781 55.8559L45.0967 54.4654C44.9939 54.3894 44.859 54.3723 44.7405 54.4202L42.5714 55.2969C42.2807 55.4144 41.9858 55.1372 42.0851 54.8397L42.8262 52.6207C42.8667 52.4994 42.8413 52.3659 42.7591 52.268L41.255 50.476C41.0534 50.2358 41.2259 49.8696 41.5395 49.8722L43.879 49.8913C44.0068 49.8923 44.126 49.8269 44.1937 49.7185L45.4332 47.7343Z" fill="#F2D300"/>
<path d="M56.2911 49.1117C56.4573 48.8457 56.8588 48.8967 56.9533 49.1957L57.6581 51.4266C57.6966 51.5485 57.7956 51.6416 57.9196 51.6725L60.1898 52.2382C60.4941 52.314 60.5697 52.7116 60.3145 52.8939L58.4106 54.2535C58.3066 54.3278 58.2486 54.4508 58.2576 54.5783L58.4211 56.9121C58.443 57.225 58.0882 57.4198 57.836 57.2334L55.9546 55.8428C55.8518 55.7668 55.7169 55.7497 55.5984 55.7976L53.4293 56.6743C53.1386 56.7919 52.8437 56.5147 52.943 56.2172L53.6841 53.9981C53.7246 53.8769 53.6992 53.7433 53.6171 53.6454L52.1129 51.8534C51.9113 51.6132 52.0838 51.2471 52.3974 51.2496L54.7369 51.2687C54.8648 51.2698 54.9839 51.2044 55.0516 51.096L56.2911 49.1117Z" fill="#F2D300"/>
<path d="M67.1491 50.4891C67.3152 50.2232 67.7167 50.2741 67.8112 50.5731L68.516 52.804C68.5545 52.9259 68.6535 53.019 68.7776 53.0499L71.0477 53.6156C71.352 53.6914 71.4277 54.0891 71.1724 54.2713L69.2685 55.631C69.1645 55.7052 69.1065 55.8282 69.1155 55.9557L69.279 58.2896C69.3009 58.6024 68.9461 58.7972 68.6939 58.6108L66.8125 57.2202C66.7097 57.1443 66.5748 57.1272 66.4563 57.1751L64.2872 58.0518C63.9965 58.1693 63.7016 57.8921 63.8009 57.5946L64.5421 55.3755C64.5825 55.2543 64.5571 55.1208 64.475 55.0228L62.9709 53.2308C62.7692 52.9906 62.9418 52.6245 63.2554 52.6271L65.5949 52.6462C65.7227 52.6472 65.8418 52.5818 65.9096 52.4734L67.1491 50.4891Z" fill="#F2D300"/>
<g clip-path="url(#clip1_246_138)">
<path d="M108.101 47.1499C108.218 46.2269 108.247 45.329 108.202 44.4575L95.9429 42.9028L95.3043 47.9376L102.309 48.826C101.801 50.4148 100.709 51.677 99.2138 52.4251L98.7996 55.6909L103.006 56.2244C105.755 54.2706 107.598 51.1138 108.101 47.1499Z" fill="#4285F4"/>
<path d="M93.9912 58.2856C97.5055 58.7313 100.6 57.9395 103.005 56.2247L99.213 52.4254C97.9484 53.0586 96.399 53.3309 94.6477 53.1089C91.2577 52.6789 88.6786 50.0254 88.0453 46.8191L83.6968 46.2676L83.2691 49.6399C84.8713 54.1654 88.9031 57.6404 93.9912 58.2856Z" fill="#34A853"/>
<path d="M88.0466 46.8189C87.8853 46.0049 87.8432 45.1519 87.952 44.2941C88.0608 43.4362 88.3145 42.6208 88.6739 41.8728L89.1016 38.5005L84.7531 37.949C83.6119 39.6472 82.8839 41.5889 82.6273 43.6188C82.361 45.7191 82.6117 47.7707 83.2704 49.6397L88.0466 46.8189Z" fill="#FBBC05"/>
<path d="M96.6366 37.4303C98.5476 37.6726 100.18 38.5469 101.365 40.0078L105.572 36.748C103.584 34.3619 100.802 32.6984 97.2931 32.2535C92.2051 31.6082 87.4334 33.9667 84.7522 37.9489L88.673 41.8727C90.0867 38.926 93.2465 37.0003 96.6366 37.4303Z" fill="#EA4335"/>
</g>
<path d="M124.737 38.394L124.015 44.0884C123.411 44.3316 122.774 44.4954 122.104 44.5799C121.444 44.6655 120.832 44.6725 120.267 44.6009C119.11 44.4541 118.157 44.1028 117.409 43.5469C116.671 42.983 116.151 42.2631 115.848 41.3874C115.555 40.5128 115.477 39.5293 115.616 38.4367C115.747 37.3996 116.055 36.4932 116.539 35.7173C117.033 34.9425 117.708 34.3649 118.565 33.9844C119.432 33.6051 120.462 33.4912 121.657 33.6427C122.268 33.7202 122.774 33.8455 123.176 34.0187C123.587 34.1839 124.043 34.4156 124.541 34.714L124.319 36.464C123.88 36.1449 123.437 35.8911 122.99 35.7028C122.554 35.5064 122.04 35.3706 121.447 35.2954C120.743 35.2062 120.112 35.2907 119.552 35.549C119.002 35.8085 118.556 36.2082 118.215 36.7483C117.875 37.279 117.658 37.9101 117.565 38.6416C117.416 39.8175 117.593 40.7949 118.097 41.5738C118.609 42.3538 119.403 42.8119 120.477 42.9481C121.051 43.0209 121.644 42.9786 122.257 42.8211L122.635 39.835L119.358 39.4193L119.571 37.7388L124.737 38.394ZM129.513 45.7735C128.652 45.6642 127.943 45.3909 127.387 44.9535C126.831 44.5161 126.439 43.9678 126.213 43.3087C125.996 42.6415 125.937 41.919 126.036 41.1412C126.133 40.3727 126.37 39.697 126.745 39.1143C127.129 38.5326 127.645 38.0995 128.292 37.8147C128.94 37.5299 129.694 37.4421 130.555 37.5513C131.407 37.6594 132.107 37.9315 132.653 38.3678C133.209 38.8052 133.596 39.3529 133.814 40.0108C134.041 40.6699 134.106 41.3838 134.008 42.1523C133.909 42.93 133.667 43.6144 133.282 44.2052C132.907 44.788 132.396 45.2218 131.748 45.5066C131.11 45.7925 130.365 45.8815 129.513 45.7735ZM129.719 44.1485C130.376 44.2318 130.909 44.0736 131.317 43.6738C131.727 43.2647 131.98 42.6759 132.077 41.9074C132.175 41.1389 132.076 40.5101 131.78 40.0211C131.485 39.532 131.009 39.2458 130.351 39.1624C129.684 39.0779 129.142 39.2349 128.725 39.6336C128.317 40.0334 128.064 40.6175 127.966 41.386C127.869 42.1546 127.967 42.788 128.262 43.2863C128.566 43.7765 129.052 44.0639 129.719 44.1485ZM138.763 46.9466C137.902 46.8374 137.193 46.5641 136.637 46.1266C136.081 45.6892 135.69 45.1409 135.463 44.4818C135.246 43.8146 135.187 43.0921 135.286 42.3143C135.383 41.5458 135.62 40.8702 135.995 40.2874C136.379 39.7058 136.895 39.2726 137.542 38.9878C138.19 38.703 138.944 38.6153 139.806 38.7245C140.657 38.8325 141.357 39.1046 141.904 39.5409C142.46 39.9783 142.846 40.526 143.064 41.184C143.291 41.8431 143.356 42.5569 143.258 43.3254C143.16 44.1032 142.917 44.7875 142.532 45.3784C142.157 45.9612 141.646 46.3949 140.998 46.6797C140.36 46.9657 139.615 47.0546 138.763 46.9466ZM138.969 45.3216C139.626 45.405 140.159 45.2468 140.567 44.847C140.977 44.4379 141.23 43.8491 141.328 43.0806C141.425 42.3121 141.326 41.6833 141.031 41.1942C140.735 40.7051 140.259 40.4189 139.601 40.3356C138.935 40.251 138.393 40.4081 137.975 40.8067C137.567 41.2065 137.314 41.7907 137.217 42.5592C137.119 43.3277 137.218 43.9611 137.512 44.4594C137.817 44.9497 138.302 45.2371 138.969 45.3216ZM152.514 40.5619L151.52 48.3952C151.389 49.4322 151.001 50.2251 150.358 50.7738C149.714 51.3226 148.8 51.5218 147.615 51.3715C146.957 51.2881 146.379 51.1771 145.879 51.0384C145.379 50.8998 144.905 50.7079 144.456 50.4628L144.68 48.699C145.109 48.9509 145.549 49.1526 146 49.3039C146.459 49.4656 146.879 49.5706 147.258 49.6187C148.092 49.7244 148.681 49.6438 149.025 49.377C149.378 49.1114 149.596 48.6592 149.677 48.0203L149.781 47.2008C149.005 47.6764 148.247 47.8672 147.507 47.7733C146.442 47.6382 145.632 47.1969 145.078 46.4492C144.523 45.7015 144.33 44.6656 144.498 43.3416C144.607 42.4805 144.848 41.7724 145.219 41.2174C145.6 40.6636 146.073 40.272 146.638 40.0426C147.204 39.8132 147.829 39.742 148.514 39.8289C149.264 39.924 149.951 40.2934 150.575 40.937L150.653 40.3259L152.514 40.5619ZM148.067 46.1368C148.687 46.2154 149.324 46.0563 149.976 45.6592L150.38 42.4787C149.828 41.9289 149.252 41.6159 148.65 41.5396C148.02 41.4597 147.518 41.5983 147.144 41.9554C146.769 42.3124 146.535 42.8567 146.443 43.5882C146.342 44.3844 146.425 44.9877 146.693 45.398C146.97 45.8095 147.428 46.0557 148.067 46.1368ZM155.815 49.0528C155.055 48.9565 154.52 48.7286 154.208 48.3692C153.897 48.0005 153.784 47.4828 153.869 46.8161L155.133 36.844L156.994 37.08L155.807 46.4411C155.765 46.7744 155.791 47.0129 155.886 47.1566C155.981 47.3004 156.171 47.3904 156.458 47.4268C156.745 47.4632 157.004 47.4677 157.233 47.4404L157.029 49.0515C156.58 49.0981 156.176 49.0985 155.815 49.0528ZM160.396 45.9364C160.366 47.3626 161.054 48.1649 162.462 48.3434C162.823 48.3892 163.18 48.3875 163.535 48.3384C163.889 48.2892 164.292 48.1898 164.744 48.0401L165.057 49.5758C164.581 49.7694 164.105 49.8878 163.629 49.9309C163.152 49.9833 162.622 49.9725 162.039 49.8985C161.178 49.7893 160.463 49.5247 159.895 49.1046C159.329 48.6752 158.928 48.1304 158.692 47.4701C158.465 46.811 158.404 46.0694 158.508 45.2454C158.617 44.3843 158.873 43.6687 159.274 43.0987C159.677 42.5194 160.176 42.1076 160.772 41.8633C161.367 41.6189 162.007 41.5402 162.693 41.6271C163.776 41.7645 164.582 42.196 165.111 42.9216C165.65 43.6392 165.846 44.6189 165.698 45.8608L165.604 46.5969L160.396 45.9364ZM162.492 43.2104C161.584 43.0953 160.97 43.5254 160.649 44.5008L163.829 44.9041C163.849 44.3798 163.749 43.9813 163.529 43.7089C163.31 43.4365 162.964 43.2703 162.492 43.2104ZM117.906 53.9824L116.295 53.778L115.772 57.903L113.841 57.6582L115.176 47.1305L119.162 47.636C121.644 47.9507 122.749 49.1775 122.478 51.3164C122.377 52.1127 122.109 52.742 121.674 53.2042C121.239 53.6665 120.643 53.9485 119.887 54.0502L122.008 58.6939L119.855 58.4209L117.906 53.9824ZM116.504 52.1253L118.56 52.386C119.736 52.5351 120.391 52.0819 120.525 51.0264C120.592 50.4986 120.492 50.0955 120.226 49.8172C119.97 49.5401 119.545 49.3639 118.953 49.2888L116.897 49.0281L116.504 52.1253ZM125.622 55.6383C125.591 57.0645 126.28 57.8668 127.687 58.0453C128.048 58.0911 128.406 58.0894 128.76 58.0403C129.115 57.9912 129.518 57.8917 129.97 57.7421L130.283 59.2777C129.807 59.4713 129.331 59.5897 128.855 59.6328C128.378 59.6852 127.848 59.6744 127.264 59.6004C126.403 59.4912 125.689 59.2266 125.121 58.8065C124.555 58.3771 124.153 57.8323 123.917 57.172C123.69 56.5129 123.629 55.7713 123.734 54.9473C123.843 54.0862 124.098 53.3706 124.5 52.8006C124.903 52.2213 125.402 51.8095 125.997 51.5652C126.593 51.3208 127.233 51.2421 127.918 51.329C129.002 51.4664 129.808 51.8979 130.337 52.6235C130.876 53.3411 131.071 54.3208 130.923 55.5627L130.83 56.2988L125.622 55.6383ZM127.717 52.9123C126.81 52.7972 126.196 53.2273 125.874 54.2027L129.055 54.606C129.074 54.0817 128.974 53.6832 128.755 53.4108C128.535 53.1384 128.19 52.9722 127.717 52.9123ZM139.955 53.0813L136.218 60.6231L133.885 60.3272L132.149 52.0914L134.066 52.3345L135.277 58.6974L138.038 52.8383L139.955 53.0813ZM141.775 49.8123L143.636 50.0483L143.37 52.1455L141.509 51.9095L141.775 49.8123ZM141.338 53.2567L143.199 53.4927L142.214 61.2565L140.353 61.0205L141.338 53.2567ZM146.346 58.2667C146.316 59.6929 147.005 60.4952 148.412 60.6737C148.773 60.7195 149.131 60.7178 149.485 60.6687C149.839 60.6195 150.242 60.5201 150.694 60.3704L151.008 61.9061C150.531 62.0997 150.055 62.2181 149.579 62.2612C149.102 62.3136 148.572 62.3028 147.989 62.2288C147.128 62.1196 146.413 61.855 145.846 61.4349C145.279 61.0055 144.878 60.4607 144.642 59.8004C144.415 59.1413 144.354 58.3997 144.458 57.5757C144.568 56.7145 144.823 55.999 145.224 55.429C145.627 54.8497 146.126 54.4379 146.722 54.1936C147.317 53.9492 147.958 53.8705 148.643 53.9574C149.726 54.0948 150.532 54.5263 151.061 55.2519C151.6 55.9695 151.796 56.9492 151.648 58.1911L151.555 58.9272L146.346 58.2667ZM148.442 55.5407C147.535 55.4256 146.92 55.8557 146.599 56.8311L149.78 57.2344C149.799 56.7101 149.699 56.3116 149.48 56.0392C149.26 55.7667 148.914 55.6006 148.442 55.5407ZM164.888 56.2434L161.721 63.8575L159.568 63.5844L158.597 58.1128L156.304 63.1705L154.151 62.8975L152.971 54.7321L154.888 54.9752L155.543 60.7172L157.832 55.3486L160.027 55.6269L160.918 61.3989L162.971 56.0004L164.888 56.2434ZM168.014 64.7685C167.412 64.6921 166.881 64.5731 166.422 64.4113C165.963 64.2496 165.494 64.0161 165.015 63.7108L165.231 62.0024C165.687 62.3425 166.157 62.609 166.64 62.802C167.134 62.987 167.659 63.1147 168.214 63.1851C169.001 63.2849 169.431 63.0525 169.502 62.4876C169.533 62.2469 169.486 62.0622 169.361 61.9334C169.247 61.7966 169.051 61.673 168.773 61.5625L167.666 61.1681C166.973 60.9203 166.463 60.5969 166.138 60.1981C165.822 59.7912 165.707 59.2544 165.792 58.5878C165.996 56.9767 167.103 56.2985 169.112 56.5534C169.992 56.6649 170.855 56.9437 171.701 57.3898L171.493 59.0287C171.172 58.8185 170.795 58.6344 170.364 58.4762C169.932 58.3179 169.476 58.2083 168.994 58.1472C168.189 58.0451 167.756 58.2347 167.695 58.7162C167.666 58.9384 167.711 59.1087 167.827 59.227C167.953 59.3464 168.146 59.4556 168.407 59.5545L169.5 59.9472C170.228 60.2182 170.75 60.5525 171.066 60.9502C171.383 61.3478 171.495 61.9124 171.402 62.6439C171.297 63.4679 170.94 64.0577 170.331 64.4132C169.721 64.7686 168.949 64.8871 168.014 64.7685Z" fill="#2A2A2A"/>
<defs>
<clipPath id="clip0_246_138">
<rect x="22.4885" y="17.8857" width="53" height="29" rx="14.5" transform="rotate(7.22792 22.4885 17.8857)" fill="white"/>
</clipPath>
<clipPath id="clip1_246_138">
<rect width="28.6259" height="28.6259" fill="white" transform="translate(83.2419 29.2695) rotate(7.22792)"/>
</clipPath>
</defs>
</svg>
