<svg width="98" height="98" viewBox="0 0 98 98" fill="none" xmlns="http://www.w3.org/2000/svg">
<path fill-rule="evenodd" clip-rule="evenodd" d="M16.6603 3.5502C18.4412 3.53125 18.9906 3.60703 20.4494 4.06172C21.3966 4.3459 22.7607 4.91426 23.4806 5.33105C24.3142 5.78574 25.3562 6.61934 26.3224 7.58555C27.156 8.43809 28.1222 9.59375 28.4632 10.1621C28.7853 10.7305 29.3347 11.924 29.6378 12.8145C30.0357 13.9512 30.2441 14.9553 30.3199 16.2246C30.4146 17.4939 30.3578 18.4602 30.1494 19.54C29.9978 20.3736 29.6947 21.5293 29.4673 22.0977C29.2589 22.666 28.6716 23.7838 28.1601 24.5605C27.6486 25.3373 26.7582 26.4172 26.2087 26.9477C25.6404 27.4781 24.7121 28.2359 24.1437 28.6148C23.5753 28.9937 22.4576 29.5432 21.6808 29.8463C20.9041 30.1494 19.6158 30.4904 18.839 30.623C17.9675 30.7746 16.774 30.8125 15.7509 30.7367C14.8416 30.6799 13.4775 30.4336 12.7386 30.1873C11.9808 29.941 10.7683 29.4295 10.0294 29.0316C9.15796 28.5391 8.15386 27.7244 7.09292 26.6635C6.03198 25.5836 5.25522 24.5795 4.78159 23.708C4.40269 22.9691 3.85327 21.5672 3.56909 20.582C3.1144 18.9717 3.07651 18.5738 3.17124 16.793C3.22808 15.6941 3.39858 14.2922 3.56909 13.667C3.7396 13.0418 4.23218 11.8104 4.66792 10.9199C5.31206 9.65059 5.82358 8.96855 7.09292 7.69922C7.98335 6.80879 9.25269 5.7668 9.93472 5.36895C10.6167 4.99004 11.7724 4.47852 12.4923 4.27012C13.2123 4.04277 13.989 3.79648 14.1974 3.70176C14.4058 3.62598 15.5236 3.5502 16.6603 3.5502ZM15.2394 8.96855C15.2583 9.80215 15.2015 9.89687 14.6521 10.1621C14.3111 10.3137 13.7238 10.7873 13.3638 11.223C12.9849 11.6398 12.5681 12.3219 12.4544 12.7387C12.3218 13.1365 12.2082 13.7807 12.2082 14.1406C12.2082 14.5006 12.3218 15.1447 12.4355 15.5615C12.5871 16.0162 13.0417 16.6982 13.6291 17.2666C14.1974 17.8539 14.8794 18.3086 15.3341 18.4602C15.7509 18.5738 16.3761 18.6875 16.7171 18.6875C17.115 18.6875 17.4939 18.858 17.797 19.1611C18.1001 19.4643 18.2707 19.8432 18.2707 20.2031C18.2707 20.5441 18.1001 20.9609 17.797 21.2451C17.5128 21.5482 17.1339 21.7188 16.755 21.7188C16.3951 21.7188 16.0162 21.5482 15.713 21.2451C15.4478 20.9799 15.2394 20.6389 15.2394 20.4873C15.2394 20.26 14.9363 20.2031 13.7238 20.2031C12.3976 20.2031 12.2082 20.241 12.2082 20.5252C12.2082 20.7146 12.3218 21.2072 12.4544 21.6051C12.5681 22.0219 12.9849 22.7039 13.3638 23.1207C13.7238 23.5564 14.3111 24.0301 14.6521 24.1816C15.2015 24.4469 15.2583 24.5416 15.2394 25.3562V26.2656H18.2707C18.2517 24.5416 18.3085 24.4469 18.858 24.1816C19.199 24.0301 19.7863 23.5564 20.1462 23.1207C20.5251 22.7039 20.9419 22.0219 21.0556 21.6051C21.1882 21.2072 21.3019 20.5631 21.3019 20.2031C21.3019 19.8432 21.1882 19.199 21.0746 18.7822C20.923 18.3275 20.4683 17.6455 19.881 17.0771C19.3126 16.4898 18.6306 16.0352 18.1759 15.8836C17.7591 15.7699 17.1339 15.6562 16.8119 15.6562C16.3951 15.6562 16.0162 15.4857 15.713 15.1826C15.4099 14.8795 15.2394 14.5006 15.2394 14.1406C15.2394 13.7996 15.4099 13.3828 15.713 13.0986C15.9972 12.7955 16.3761 12.625 16.755 12.625C17.115 12.625 17.4939 12.7955 17.797 13.0986C18.0623 13.3639 18.2707 13.7049 18.2707 13.8564C18.2707 14.0838 18.5738 14.1406 19.7863 14.1406C21.1125 14.1406 21.3019 14.1027 21.3019 13.7996C21.3019 13.6291 21.1882 13.1365 21.0556 12.7387C20.9419 12.3219 20.5251 11.6398 20.1462 11.223C19.7863 10.7873 19.199 10.3137 18.858 10.1621C18.3085 9.89687 18.2517 9.80215 18.2707 8.96855V8.07812H15.2394V8.96855ZM80.3166 3.53125C82.0974 3.53125 82.6279 3.58809 84.1056 4.04277C85.0339 4.3459 86.398 4.91426 87.1369 5.31211C87.9894 5.78574 89.0125 6.60039 90.0734 7.66133C91.3238 8.93066 91.8542 9.65059 92.4794 10.901C92.9341 11.7914 93.4646 13.1934 93.673 14.027C93.9003 14.9742 94.0519 16.1678 94.0519 17.1529C94.033 18.1002 93.8814 19.3695 93.673 20.1842C93.4835 20.9799 93.1236 22.0787 92.8584 22.6471C92.6121 23.2344 92.0626 24.2006 91.6459 24.8258C91.229 25.4699 90.2818 26.5309 89.5619 27.1939C88.7093 27.9896 87.6673 28.7285 86.6443 29.24C85.7728 29.6758 84.4845 30.1873 83.8214 30.3768C82.95 30.6041 81.889 30.6988 80.2218 30.6988C78.0431 30.6799 77.7021 30.642 76.1486 30.0736C75.2013 29.7516 73.9699 29.2021 73.4015 28.8611C72.8142 28.5201 71.6775 27.5539 70.8439 26.7203C70.0103 25.8867 69.0062 24.6553 68.6084 23.9732C68.2105 23.3102 67.6611 22.0598 67.3959 21.2262C66.9601 19.9379 66.8843 19.3695 66.8843 17.3424C66.8654 15.6562 66.9601 14.6332 67.1875 13.7428C67.3769 13.0797 67.8884 11.7914 68.3242 10.901C68.9494 9.65059 69.4798 8.94961 70.7302 7.66133C71.7154 6.67617 72.8332 5.7668 73.591 5.35C74.2541 4.97109 75.3718 4.49746 76.0539 4.27012C76.7169 4.06172 77.4937 3.81543 77.7589 3.7207C78.0052 3.62598 79.1609 3.5502 80.3166 3.53125ZM78.8957 8.96855C78.8957 9.80215 78.8578 9.89688 78.2894 10.1432C77.9673 10.3137 77.38 10.7873 77.0011 11.2041C76.6412 11.6398 76.2244 12.3219 76.0918 12.7197C75.9591 13.1365 75.8644 13.7617 75.8644 14.1217C75.8644 14.5006 75.9591 15.1258 76.0918 15.5426C76.2244 16.0162 76.6791 16.6793 77.2664 17.2666C77.8537 17.8539 78.5167 18.3086 78.9904 18.4412C79.4072 18.5738 80.0134 18.6686 80.3544 18.6686C80.7523 18.6686 81.1312 18.8391 81.4533 19.1422C81.7374 19.4453 81.9269 19.8432 81.9269 20.1842C81.9269 20.5441 81.7374 20.942 81.4533 21.2262C81.1691 21.5293 80.7712 21.6998 80.4113 21.6998C80.0513 21.6998 79.6535 21.5293 79.3693 21.2262C79.1041 20.9799 78.8957 20.6389 78.8957 20.4684C78.8957 20.241 78.5925 20.1842 77.38 20.1842C76.0539 20.1842 75.8644 20.241 75.8644 20.5252C75.8644 20.7146 75.9591 21.1883 76.0918 21.6051C76.2244 22.0029 76.6412 22.685 77.0011 23.1207C77.38 23.5375 77.9673 24.0111 78.2894 24.1627C78.8578 24.4279 78.8957 24.5227 78.8957 25.3562V26.2467H81.9269C81.908 24.5227 81.9459 24.4279 82.5142 24.1627C82.8552 24.0111 83.4236 23.5375 83.8025 23.1207C84.1625 22.685 84.5793 22.0029 84.7119 21.6051C84.8445 21.1883 84.9392 20.5631 84.9392 20.1842C84.9392 19.8242 84.8445 19.1801 84.7119 18.7633C84.5793 18.3086 84.1246 17.6455 83.5373 17.0582C82.95 16.4709 82.2869 16.0162 81.8322 15.8836C81.4154 15.751 80.7902 15.6562 80.4492 15.6562C80.0513 15.6562 79.6724 15.4857 79.3693 15.1637C79.0662 14.8795 78.8957 14.4816 78.8957 14.1217C78.8957 13.7807 79.0662 13.3828 79.3503 13.0797C79.6535 12.7955 80.0324 12.6061 80.3923 12.6061C80.7523 12.6061 81.1501 12.7955 81.4533 13.0797C81.6996 13.3449 81.9269 13.6859 81.9269 13.8375C81.9269 14.0838 82.2111 14.1217 83.4425 14.1217C84.7498 14.1217 84.9582 14.0838 84.9392 13.7996C84.9392 13.6102 84.8445 13.1365 84.7119 12.7197C84.5793 12.3219 84.1625 11.6398 83.8025 11.2041C83.4236 10.7873 82.8552 10.3137 82.5142 10.1432C81.9459 9.89688 81.908 9.80215 81.908 8.96855L81.9269 8.05918H78.8957V8.96855ZM12.3029 38.4664C12.3218 38.4854 12.1703 39.2242 11.9619 40.1147C11.6587 41.3461 11.6019 42.085 11.6777 43.4111C11.7345 44.51 11.9619 45.6467 12.2839 46.6318C12.5492 47.4654 13.1365 48.7537 13.5722 49.4736C14.008 50.2125 14.8794 51.3303 15.5046 51.9934C16.1298 52.6564 16.7171 53.1869 16.7929 53.168C16.8687 53.168 17.456 52.6943 18.1191 52.126C18.7632 51.5576 19.3316 51.1408 19.3884 51.1977C19.4453 51.2734 19.881 54.5131 20.3736 58.4537C20.8662 62.3754 21.2451 65.5961 21.2261 65.615C21.2072 65.634 17.5697 65.3119 13.1365 64.8951C8.70327 64.4783 4.98999 64.0994 4.85737 64.0426C4.72476 64.0047 5.40679 63.2658 8.1728 60.8408L7.11187 59.7041C6.54351 59.0789 5.82358 58.1885 5.50151 57.7148C5.17944 57.2412 4.66792 56.3129 4.34585 55.6309C4.04272 54.9488 3.62593 53.8121 3.45542 53.0732C3.26597 52.3344 3.09546 51.1029 3.09546 50.3262C3.09546 49.5494 3.24702 48.2611 3.45542 47.4844C3.64487 46.7076 4.02378 45.6467 4.28901 45.1162C4.55425 44.6047 5.14155 43.6574 5.61519 43.0322C6.08882 42.407 6.9603 41.4977 7.5855 41.024C8.19175 40.5504 9.02534 39.9631 9.44214 39.7168C9.85894 39.4516 10.6736 39.0727 11.2419 38.8264C11.7914 38.599 12.2839 38.4285 12.3029 38.4664ZM84.655 38.3527L85.5076 38.6748C85.9812 38.8453 86.8337 39.2242 87.4021 39.5463C87.9705 39.8494 88.9177 40.4746 89.4861 40.9293C90.0544 41.365 90.9449 42.2934 91.4564 42.9564C91.9679 43.6195 92.5742 44.5668 92.8205 45.0783C93.0667 45.5709 93.4457 46.5939 93.6541 47.3518C93.8814 48.1285 94.033 49.3031 94.033 50.0988C94.033 50.8377 93.9003 52.0881 93.7298 52.8459C93.5593 53.5848 93.1615 54.7973 92.8205 55.5361C92.4984 56.275 91.949 57.2412 91.6459 57.7148C91.3238 58.1885 90.5849 59.0789 88.9746 60.8408L90.7365 62.4133C91.7406 63.2658 92.4226 64.0047 92.29 64.0426C92.1574 64.0994 88.4251 64.4783 83.9919 64.8951C79.5587 65.3119 75.9212 65.634 75.9023 65.615C75.8834 65.5961 76.2623 62.3754 76.7548 58.4537C77.2474 54.5131 77.6832 51.2734 77.74 51.1977C77.7968 51.1408 78.3652 51.5576 79.0283 52.126C79.6724 52.6943 80.2787 53.168 80.3544 53.168C80.4302 53.1869 80.9986 52.6564 81.6238 51.9934C82.2679 51.3303 83.1205 50.2125 83.5562 49.4736C83.9919 48.7537 84.5792 47.4654 84.8634 46.6318C85.1666 45.6846 85.3939 44.51 85.4507 43.5059C85.5265 42.426 85.4507 41.4598 85.2613 40.5693C85.0908 39.8494 84.8824 39.0537 84.8066 38.8074L84.655 38.3527ZM19.6726 85.375L77.3611 85.3561L92.4037 94.3551L70.4271 94.4119C58.3589 94.4309 38.6369 94.4309 4.7437 94.3551L19.6726 85.375ZM48.4695 26.2656C53.9257 26.2656 55.4982 26.3225 56.3318 26.5309C56.9001 26.7014 57.7906 27.0234 58.321 27.2887C58.8326 27.535 59.8177 28.217 60.4998 28.7664C61.1628 29.3158 62.1669 30.3768 62.7353 31.0967C63.2847 31.8166 64.1941 33.3512 64.7625 34.4879C65.3119 35.6436 65.975 37.3107 66.2212 38.1822C66.6001 39.641 66.657 40.2094 66.657 44.0553C66.657 48.0338 66.6191 48.3748 66.2402 49.0758C66.0318 49.4926 65.5582 50.0988 65.1982 50.4209C64.8572 50.743 64.3646 51.065 64.1373 51.1408C63.7205 51.2545 63.7205 51.3303 63.7015 54.0584C63.7015 55.593 63.6068 57.2412 63.5121 57.6959C63.3984 58.1695 63.0953 58.9842 62.83 59.4957C62.5837 60.0262 61.9585 60.8598 61.466 61.3523C60.8408 61.9775 60.6703 62.2617 60.8787 62.3186C61.0302 62.3564 61.6744 62.5459 62.2996 62.7164C62.9248 62.9059 64.1183 63.3984 64.9519 63.8342C66.1076 64.4404 66.8843 65.0467 68.2673 66.4107C69.3283 67.4717 70.3513 68.7221 70.7871 69.442C71.166 70.124 71.7533 71.4881 72.6816 74.273L72.8142 83.8404H62.2048V77.5885H59.1736V83.8404H56.1423C53.13 83.8404 53.1111 83.8404 53.0921 83.4236C53.0921 83.1963 52.9406 80.9607 52.7511 78.4789C52.5806 75.9971 52.4859 73.932 52.5427 73.8941C52.5806 73.8373 53.1679 74.3109 53.8121 74.9361C54.4751 75.5803 55.1761 76.0729 55.3845 76.0729C55.6119 76.0729 56.0287 75.8455 56.3128 75.5613C56.7296 75.1256 56.8812 74.7088 57.1654 73.1363C57.3548 72.0943 57.8285 69.4988 58.2263 67.358C58.6052 65.2361 58.9084 63.4363 58.8515 63.3795C58.8136 63.3416 58.1316 63.5689 57.3169 63.9289C56.5023 64.2699 55.8013 64.6109 55.7255 64.6867C55.6498 64.7436 55.3656 66.0887 55.1003 67.6422C54.8162 69.2146 54.532 70.6356 54.4562 70.825C54.3615 71.1092 53.9447 70.7682 50.1367 66.6949H47.0107L42.7291 71.2418L42.5207 70.1998C42.407 69.6314 42.1228 68.1537 41.4597 64.6299L39.982 64.0047C39.1673 63.6637 38.4474 63.4174 38.3527 63.4363C38.2769 63.4553 38.6748 66.1266 39.281 69.3473C40.2851 74.8225 40.3988 75.2582 40.8535 75.6561C41.1376 75.8834 41.5355 76.0729 41.7439 76.0729C41.9523 76.0729 42.6533 75.5613 43.2974 74.9361C43.9416 74.3109 44.5289 73.8373 44.5857 73.8941C44.6236 73.932 44.5667 75.4855 44.4531 77.3422C44.3205 79.1988 44.1689 81.4344 44.0173 83.8404H37.9548V77.5885H34.9236V83.8404H24.3142L24.371 79.0662C24.4279 74.8035 24.4847 74.1404 24.8447 72.9469C25.072 72.227 25.4509 71.2039 25.6972 70.6734C25.9435 70.1619 26.474 69.2146 26.9097 68.5895C27.3265 67.9643 28.1791 66.9602 28.7853 66.3729C29.3916 65.7666 30.282 65.0088 30.7556 64.6867C31.2103 64.3646 32.0628 63.8721 32.6501 63.5879C33.2185 63.2848 34.2037 62.9059 34.8289 62.7164C35.4541 62.5459 36.0792 62.3564 36.2498 62.3186C36.4392 62.2617 36.2687 61.9775 35.6246 61.3523C35.132 60.8598 34.5257 60.0262 34.2605 59.4957C34.0142 58.9842 33.7111 58.1695 33.6164 57.6959C33.5027 57.2412 33.408 55.6119 33.408 51.3492L32.9343 51.1219C32.6691 50.9893 32.1765 50.6482 31.8355 50.3451C31.4945 50.042 31.0209 49.341 30.7746 48.7727C30.3388 47.7875 30.3199 47.6549 30.4146 43.6764C30.4904 40.2852 30.5662 39.3758 30.9072 38.1443C31.1345 37.3297 31.5892 36.0604 31.9113 35.3025C32.2523 34.5447 32.8964 33.3322 33.3701 32.5934C33.8248 31.8734 34.5636 30.8504 34.9994 30.3199C35.4351 29.8084 36.3445 28.9559 37.0076 28.4443C37.6896 27.9518 38.6179 27.3455 39.0916 27.1371C39.5462 26.9287 40.323 26.6635 40.7966 26.5309C41.3839 26.3603 43.6384 26.2846 48.4695 26.2656ZM46.7834 38.618C47.0296 39.5463 47.0486 39.9252 46.8781 40.3609C46.7644 40.683 46.4613 41.043 46.196 41.1756C45.855 41.3461 44.6236 41.4029 42.1607 41.4029C39.1484 41.4029 38.5042 41.4598 37.9548 41.7439C37.5949 41.9334 37.1591 42.2934 36.9697 42.5396C36.7802 42.8049 36.5718 43.3543 36.515 43.7711C36.4582 44.1879 36.3066 44.7373 36.174 44.9646C36.0603 45.192 35.7572 45.4762 35.5298 45.5709C35.3025 45.6846 34.8857 45.7603 34.6394 45.7603C34.3742 45.7603 33.9953 45.9309 33.7869 46.1393C33.5595 46.3666 33.408 46.7834 33.408 47.0865C33.408 47.4086 33.5595 47.8254 33.7869 48.0338C33.9953 48.2422 34.3742 48.4127 34.6394 48.4127C34.8857 48.4127 35.3214 48.5264 35.5867 48.659C35.8519 48.7916 36.1171 49.0189 36.1929 49.1705C36.2687 49.341 36.3634 51.2166 36.4203 53.3385C36.515 56.7107 36.5718 57.3359 36.8939 57.9801C37.1023 58.3969 37.5759 59.041 37.9548 59.401C38.4474 59.8936 39.5841 60.4809 42.3123 61.6365C44.7183 62.6596 46.4613 63.2848 47.3328 63.4363C48.3369 63.6068 48.9431 63.6068 49.8904 63.4363C50.5914 63.3037 52.6564 62.5648 54.7972 61.6365C57.5253 60.4809 58.681 59.8936 59.1736 59.401C59.5335 59.041 60.0072 58.3969 60.2156 57.9801C60.5376 57.3359 60.5945 56.7107 60.6892 53.3385C60.746 51.2166 60.8408 49.341 60.9166 49.1705C60.9923 49.0189 61.2576 48.7916 61.5228 48.659C61.788 48.5264 62.2238 48.4127 62.489 48.4127C62.7353 48.4127 63.1332 48.2422 63.3416 48.0338C63.5499 47.8254 63.7205 47.4086 63.7205 47.0865C63.7205 46.7834 63.5499 46.3666 63.3416 46.1393C63.1332 45.9309 62.7353 45.7603 62.489 45.7603C62.2238 45.7603 61.807 45.6846 61.5796 45.5709C61.3523 45.4762 61.0492 45.192 60.9355 44.9646C60.8029 44.7373 60.6703 44.1879 60.6134 43.7711C60.5376 43.3543 60.3482 42.8049 60.1587 42.5396C59.9503 42.2934 59.5146 41.9334 59.1546 41.7439C58.7189 41.5166 58.0748 41.4219 57.1843 41.4219C55.8771 41.4219 55.7634 41.384 51.2544 39.2432C48.7347 38.0307 46.6128 37.0455 46.575 37.0455C46.5181 37.0455 46.4802 37.1402 46.4802 37.235C46.4802 37.3486 46.6128 37.9738 46.7834 38.618ZM48.5263 69.6314C48.6021 69.6314 48.7537 69.7262 48.8673 69.8588C49.0189 70.0104 49.2462 72.1891 49.4925 75.5613C49.7009 78.5547 49.8904 81.3018 49.8904 82.3248H47.238V81.7186C47.238 81.3775 47.4085 78.6305 47.6169 75.6182C47.8253 72.6059 48.0906 70.0293 48.2043 69.8967C48.3179 69.7451 48.4695 69.6314 48.5263 69.6314ZM42.9753 45.1352C43.4869 45.192 44.2068 45.3814 44.5857 45.5709C44.9457 45.7603 45.4761 46.1582 45.7414 46.4613C46.0255 46.7645 46.4423 47.3896 46.6507 47.8443C46.8591 48.318 47.0296 48.9053 47.0296 49.1326C47.0486 49.5305 46.9728 49.5494 45.5709 49.5684C44.15 49.5684 44.0931 49.5494 43.8658 49.0379C43.7521 48.7537 43.3732 48.3938 43.0132 48.2611C42.5585 48.0527 42.2744 48.0527 41.9333 48.2043C41.6681 48.318 41.3271 48.6779 41.1755 49C40.8914 49.5684 40.8724 49.5684 39.4136 49.5684C38.0117 49.5494 37.9548 49.5305 37.9548 49.1326C37.9548 48.9053 38.1253 48.318 38.3337 47.8443C38.5611 47.3896 38.9589 46.7645 39.2431 46.4613C39.5084 46.1582 40.0009 45.7982 40.323 45.6277C40.6261 45.4572 41.1376 45.2678 41.4597 45.173C41.7628 45.0973 42.4449 45.0783 42.9753 45.1352ZM54.6267 45.0025C55.3277 45.0025 55.9529 45.1541 56.616 45.4762C57.1275 45.7225 57.7906 46.234 58.0748 46.6129C58.3589 46.9729 58.7189 47.6549 58.8894 48.0906C59.041 48.5264 59.1736 49.0379 59.1736 49.2273C59.1736 49.5115 58.9652 49.5494 57.6959 49.5684C56.2371 49.5684 56.2181 49.5684 55.9529 49C55.7824 48.659 55.4224 48.318 55.1003 48.2043C54.6835 48.0527 54.3994 48.0527 54.0583 48.2043C53.7931 48.318 53.4521 48.6779 53.3005 49C53.0164 49.5684 52.9974 49.5684 51.5386 49.5684C50.2693 49.5494 50.0798 49.5115 50.0609 49.2273C50.0609 49.0379 50.1935 48.5264 50.3451 48.0906C50.5156 47.6549 50.8755 46.9729 51.1597 46.6129C51.4439 46.234 52.107 45.7225 52.6375 45.4762C53.2816 45.1541 53.9068 45.0025 54.6267 45.0025ZM42.4449 55.8014H43.8847C45.2298 55.8014 45.3625 55.8393 45.7603 56.3129C45.9876 56.5971 46.4613 56.9381 46.8023 57.0707C47.1433 57.2033 47.939 57.317 48.5642 57.317C49.1894 57.317 49.9662 57.2033 50.3072 57.0707C50.6482 56.9381 51.1218 56.5971 51.3492 56.3129C51.747 55.8582 51.8986 55.8014 53.2058 55.8014C54.2099 55.8014 54.6267 55.8772 54.6267 56.0477C54.6078 56.1803 54.532 56.5781 54.4373 56.9381C54.3425 57.317 53.9257 57.9801 53.5279 58.4348C53.149 58.8895 52.4291 59.4578 51.9744 59.7041C51.5007 59.9314 50.5156 60.2346 49.7957 60.3672C48.7537 60.5377 48.1853 60.5377 47.238 60.3672C46.556 60.2346 45.7035 59.9883 45.3435 59.7988C44.9646 59.6094 44.3773 59.2115 44.0363 58.9084C43.6763 58.6053 43.2406 58.1127 43.0511 57.7906C42.8617 57.4875 42.6533 56.9191 42.5775 56.5213L42.4449 55.8014Z" fill="#323032"/>
</svg>
