<svg width="29" height="23" viewBox="0 0 29 23" fill="none" xmlns="http://www.w3.org/2000/svg">
<path d="M27.3733 4.50739C27.2555 4.04657 27.0298 3.62036 26.7149 3.26393C26.4 2.90749 26.0048 2.63104 25.562 2.45739C21.277 0.802387 14.457 0.817388 14.082 0.817388C13.707 0.817388 6.88703 0.802387 2.60203 2.45739C2.15924 2.63104 1.76407 2.90749 1.44915 3.26393C1.13423 3.62036 0.908563 4.04657 0.790781 4.50739C0.467031 5.75489 0.0820312 8.03489 0.0820312 11.8174C0.0820312 15.5999 0.467031 17.8799 0.790781 19.1274C0.908387 19.5884 1.13397 20.0149 1.4489 20.3716C1.76384 20.7282 2.15909 21.0049 2.60203 21.1786C6.70703 22.7624 13.132 22.8174 13.9995 22.8174H14.1645C15.032 22.8174 21.4608 22.7624 25.562 21.1786C26.005 21.0049 26.4002 20.7282 26.7152 20.3716C27.0301 20.0149 27.2557 19.5884 27.3733 19.1274C27.697 17.8774 28.082 15.5999 28.082 11.8174C28.082 8.03489 27.697 5.75489 27.3733 4.50739ZM18.1558 12.6324L13.1558 16.1324C13.0062 16.2372 12.8308 16.299 12.6486 16.3111C12.4664 16.3233 12.2843 16.2853 12.1222 16.2014C11.96 16.1174 11.8239 15.9906 11.7287 15.8348C11.6335 15.6789 11.5828 15.5 11.582 15.3174V8.31739C11.5821 8.13445 11.6323 7.95504 11.7273 7.79867C11.8222 7.6423 11.9582 7.51497 12.1205 7.43054C12.2828 7.34611 12.4651 7.30782 12.6477 7.31982C12.8302 7.33183 13.006 7.39368 13.1558 7.49864L18.1558 10.9986C18.2873 11.0909 18.3947 11.2134 18.4688 11.3559C18.5429 11.4985 18.5816 11.6567 18.5816 11.8174C18.5816 11.978 18.5429 12.1363 18.4688 12.2788C18.3947 12.4213 18.2873 12.5439 18.1558 12.6361V12.6324Z" fill="black"/>
</svg>
